<?xml version="1.0" encoding="UTF-8" standalone="no"?><!DOCTYPE svg PUBLIC "-//W3C//DTD SVG 1.1//EN" "http://www.w3.org/Graphics/SVG/1.1/DTD/svg11.dtd"><!-- Generated by graphviz version 2.40.1 (20161225.0304)
 --><!-- Title: Tree Pages: 1 --><svg xmlns="http://www.w3.org/2000/svg" xmlns:xlink="http://www.w3.org/1999/xlink" width="5157pt" height="723pt" viewBox="0.00 0.00 5157.13 723.20">
<g id="graph0" class="graph" transform="scale(1 1) rotate(0) translate(4 719.2)">
<title>Tree</title>
<polygon fill="#ffffff" stroke="transparent" points="-4,4 -4,-719.2 5153.1279,-719.2 5153.1279,4 -4,4"/>
<!-- 0 -->
<g id="node1" class="node">
<title>0</title>
<path fill="#f3c6a5" stroke="#000000" d="M2861.5072,-715.2C2861.5072,-715.2 2616.8132,-715.2 2616.8132,-715.2 2610.8132,-715.2 2604.8132,-709.2 2604.8132,-703.2 2604.8132,-703.2 2604.8132,-635.2 2604.8132,-635.2 2604.8132,-629.2 2610.8132,-623.2 2616.8132,-623.2 2616.8132,-623.2 2861.5072,-623.2 2861.5072,-623.2 2867.5072,-623.2 2873.5072,-629.2 2873.5072,-635.2 2873.5072,-635.2 2873.5072,-703.2 2873.5072,-703.2 2873.5072,-709.2 2867.5072,-715.2 2861.5072,-715.2"/>
<text text-anchor="start" x="2612.7367" y="-698.6" font-family="Helvetica,sans-Serif" font-size="14.00" fill="#000000">Faced any issue with online class? ≤ 0.5</text>
<text text-anchor="start" x="2702.7826" y="-681.8" font-family="Helvetica,sans-Serif" font-size="14.00" fill="#000000">gini = 0.457</text>
<text text-anchor="start" x="2689.5596" y="-665" font-family="Helvetica,sans-Serif" font-size="14.00" fill="#000000">samples = 4000</text>
<text text-anchor="start" x="2675.5435" y="-648.2" font-family="Helvetica,sans-Serif" font-size="14.00" fill="#000000">value = [2588, 1412]</text>
<text text-anchor="start" x="2711.3464" y="-631.4" font-family="Helvetica,sans-Serif" font-size="14.00" fill="#000000">class = 0</text>
</g>
<!-- 1 -->
<g id="node2" class="node">
<title>1</title>
<path fill="#f2c29f" stroke="#000000" d="M1926.0956,-587.2C1926.0956,-587.2 1692.2248,-587.2 1692.2248,-587.2 1686.2248,-587.2 1680.2248,-581.2 1680.2248,-575.2 1680.2248,-575.2 1680.2248,-507.2 1680.2248,-507.2 1680.2248,-501.2 1686.2248,-495.2 1692.2248,-495.2 1692.2248,-495.2 1926.0956,-495.2 1926.0956,-495.2 1932.0956,-495.2 1938.0956,-501.2 1938.0956,-507.2 1938.0956,-507.2 1938.0956,-575.2 1938.0956,-575.2 1938.0956,-581.2 1932.0956,-587.2 1926.0956,-587.2"/>
<text text-anchor="start" x="1688.1925" y="-570.6" font-family="Helvetica,sans-Serif" font-size="14.00" fill="#000000">Current location (During Study) ? ≤ 0.5</text>
<text text-anchor="start" x="1772.7826" y="-553.8" font-family="Helvetica,sans-Serif" font-size="14.00" fill="#000000">gini = 0.448</text>
<text text-anchor="start" x="1759.5596" y="-537" font-family="Helvetica,sans-Serif" font-size="14.00" fill="#000000">samples = 1518</text>
<text text-anchor="start" x="1749.4348" y="-520.2" font-family="Helvetica,sans-Serif" font-size="14.00" fill="#000000">value = [1003, 515]</text>
<text text-anchor="start" x="1781.3464" y="-503.4" font-family="Helvetica,sans-Serif" font-size="14.00" fill="#000000">class = 0</text>
</g>
<!-- 0&#45;&gt;1 -->
<g id="edge1" class="edge">
<title>0-&gt;1</title>
<path fill="none" stroke="#000000" d="M2604.4272,-650.6561C2429.4071,-626.5673 2125.3723,-584.7217 1948.2442,-560.3427"/>
<polygon fill="#000000" stroke="#000000" points="1948.7198,-556.8753 1938.336,-558.979 1947.7653,-563.8099 1948.7198,-556.8753"/>
<text text-anchor="middle" x="1953.4382" y="-574.7019" font-family="Helvetica,sans-Serif" font-size="14.00" fill="#000000">True</text>
</g>
<!-- 32 -->
<g id="node33" class="node">
<title>32</title>
<path fill="#f4c8a9" stroke="#000000" d="M3304.1118,-587.2C3304.1118,-587.2 3192.2086,-587.2 3192.2086,-587.2 3186.2086,-587.2 3180.2086,-581.2 3180.2086,-575.2 3180.2086,-575.2 3180.2086,-507.2 3180.2086,-507.2 3180.2086,-501.2 3186.2086,-495.2 3192.2086,-495.2 3192.2086,-495.2 3304.1118,-495.2 3304.1118,-495.2 3310.1118,-495.2 3316.1118,-501.2 3316.1118,-507.2 3316.1118,-507.2 3316.1118,-575.2 3316.1118,-575.2 3316.1118,-581.2 3310.1118,-587.2 3304.1118,-587.2"/>
<text text-anchor="start" x="3209.2493" y="-570.6" font-family="Helvetica,sans-Serif" font-size="14.00" fill="#000000">Age? ≤ 25.5</text>
<text text-anchor="start" x="3211.7826" y="-553.8" font-family="Helvetica,sans-Serif" font-size="14.00" fill="#000000">gini = 0.462</text>
<text text-anchor="start" x="3198.5596" y="-537" font-family="Helvetica,sans-Serif" font-size="14.00" fill="#000000">samples = 2482</text>
<text text-anchor="start" x="3188.4348" y="-520.2" font-family="Helvetica,sans-Serif" font-size="14.00" fill="#000000">value = [1585, 897]</text>
<text text-anchor="start" x="3220.3464" y="-503.4" font-family="Helvetica,sans-Serif" font-size="14.00" fill="#000000">class = 0</text>
</g>
<!-- 0&#45;&gt;32 -->
<g id="edge32" class="edge">
<title>0-&gt;32</title>
<path fill="none" stroke="#000000" d="M2873.5598,-635.4021C2968.1819,-611.6071 3091.5434,-580.585 3170.3253,-560.7734"/>
<polygon fill="#000000" stroke="#000000" points="3171.339,-564.1276 3180.1834,-558.2944 3169.6317,-557.3389 3171.339,-564.1276"/>
<text text-anchor="middle" x="3167.3507" y="-575.5495" font-family="Helvetica,sans-Serif" font-size="14.00" fill="#000000">False</text>
</g>
<!-- 2 -->
<g id="node3" class="node">
<title>2</title>
<path fill="#f4cbad" stroke="#000000" d="M872.8288,-459.2C872.8288,-459.2 769.4916,-459.2 769.4916,-459.2 763.4916,-459.2 757.4916,-453.2 757.4916,-447.2 757.4916,-447.2 757.4916,-379.2 757.4916,-379.2 757.4916,-373.2 763.4916,-367.2 769.4916,-367.2 769.4916,-367.2 872.8288,-367.2 872.8288,-367.2 878.8288,-367.2 884.8288,-373.2 884.8288,-379.2 884.8288,-379.2 884.8288,-447.2 884.8288,-447.2 884.8288,-453.2 878.8288,-459.2 872.8288,-459.2"/>
<text text-anchor="start" x="782.2493" y="-442.6" font-family="Helvetica,sans-Serif" font-size="14.00" fill="#000000">Age? ≤ 21.5</text>
<text text-anchor="start" x="784.7826" y="-425.8" font-family="Helvetica,sans-Serif" font-size="14.00" fill="#000000">gini = 0.466</text>
<text text-anchor="start" x="775.4509" y="-409" font-family="Helvetica,sans-Serif" font-size="14.00" fill="#000000">samples = 695</text>
<text text-anchor="start" x="765.3261" y="-392.2" font-family="Helvetica,sans-Serif" font-size="14.00" fill="#000000">value = [438, 257]</text>
<text text-anchor="start" x="793.3464" y="-375.4" font-family="Helvetica,sans-Serif" font-size="14.00" fill="#000000">class = 0</text>
</g>
<!-- 1&#45;&gt;2 -->
<g id="edge2" class="edge">
<title>1-&gt;2</title>
<path fill="none" stroke="#000000" d="M1679.9965,-524.4662C1470.1941,-497.2854 1062.0266,-444.4054 895.0533,-422.7732"/>
<polygon fill="#000000" stroke="#000000" points="895.2535,-419.27 884.8866,-421.4561 894.354,-426.2119 895.2535,-419.27"/>
</g>
<!-- 17 -->
<g id="node18" class="node">
<title>17</title>
<path fill="#f1bb93" stroke="#000000" d="M1964.1119,-459.2C1964.1119,-459.2 1654.2085,-459.2 1654.2085,-459.2 1648.2085,-459.2 1642.2085,-453.2 1642.2085,-447.2 1642.2085,-447.2 1642.2085,-379.2 1642.2085,-379.2 1642.2085,-373.2 1648.2085,-367.2 1654.2085,-367.2 1654.2085,-367.2 1964.1119,-367.2 1964.1119,-367.2 1970.1119,-367.2 1976.1119,-373.2 1976.1119,-379.2 1976.1119,-379.2 1976.1119,-447.2 1976.1119,-447.2 1976.1119,-453.2 1970.1119,-459.2 1964.1119,-459.2"/>
<text text-anchor="start" x="1650.4345" y="-442.6" font-family="Helvetica,sans-Serif" font-size="14.00" fill="#000000">Total hours of study before online education? ≤ 4.5</text>
<text text-anchor="start" x="1776.6739" y="-425.8" font-family="Helvetica,sans-Serif" font-size="14.00" fill="#000000">gini = 0.43</text>
<text text-anchor="start" x="1763.4509" y="-409" font-family="Helvetica,sans-Serif" font-size="14.00" fill="#000000">samples = 823</text>
<text text-anchor="start" x="1753.3261" y="-392.2" font-family="Helvetica,sans-Serif" font-size="14.00" fill="#000000">value = [565, 258]</text>
<text text-anchor="start" x="1781.3464" y="-375.4" font-family="Helvetica,sans-Serif" font-size="14.00" fill="#000000">class = 0</text>
</g>
<!-- 1&#45;&gt;17 -->
<g id="edge17" class="edge">
<title>1-&gt;17</title>
<path fill="none" stroke="#000000" d="M1809.1602,-494.9891C1809.1602,-486.7417 1809.1602,-478.0661 1809.1602,-469.5724"/>
<polygon fill="#000000" stroke="#000000" points="1812.6603,-469.3431 1809.1602,-459.3431 1805.6603,-469.3431 1812.6603,-469.3431"/>
</g>
<!-- 3 -->
<g id="node4" class="node">
<title>3</title>
<path fill="#fae6d8" stroke="#000000" d="M570.1119,-331.2C570.1119,-331.2 260.2085,-331.2 260.2085,-331.2 254.2085,-331.2 248.2085,-325.2 248.2085,-319.2 248.2085,-319.2 248.2085,-251.2 248.2085,-251.2 248.2085,-245.2 254.2085,-239.2 260.2085,-239.2 260.2085,-239.2 570.1119,-239.2 570.1119,-239.2 576.1119,-239.2 582.1119,-245.2 582.1119,-251.2 582.1119,-251.2 582.1119,-319.2 582.1119,-319.2 582.1119,-325.2 576.1119,-331.2 570.1119,-331.2"/>
<text text-anchor="start" x="256.4345" y="-314.6" font-family="Helvetica,sans-Serif" font-size="14.00" fill="#000000">Total hours of study before online education? ≤ 3.5</text>
<text text-anchor="start" x="378.7826" y="-297.8" font-family="Helvetica,sans-Serif" font-size="14.00" fill="#000000">gini = 0.494</text>
<text text-anchor="start" x="369.4509" y="-281" font-family="Helvetica,sans-Serif" font-size="14.00" fill="#000000">samples = 175</text>
<text text-anchor="start" x="367.1087" y="-264.2" font-family="Helvetica,sans-Serif" font-size="14.00" fill="#000000">value = [97, 78]</text>
<text text-anchor="start" x="387.3464" y="-247.4" font-family="Helvetica,sans-Serif" font-size="14.00" fill="#000000">class = 0</text>
</g>
<!-- 2&#45;&gt;3 -->
<g id="edge3" class="edge">
<title>2-&gt;3</title>
<path fill="none" stroke="#000000" d="M757.2761,-393.0592C707.3604,-377.3222 635.8225,-354.7684 571.0554,-334.3492"/>
<polygon fill="#000000" stroke="#000000" points="571.7281,-330.8915 561.1384,-331.2227 569.6232,-337.5676 571.7281,-330.8915"/>
</g>
<!-- 10 -->
<g id="node11" class="node">
<title>10</title>
<path fill="#f3c3a1" stroke="#000000" d="M950.5128,-331.2C950.5128,-331.2 691.8076,-331.2 691.8076,-331.2 685.8076,-331.2 679.8076,-325.2 679.8076,-319.2 679.8076,-319.2 679.8076,-251.2 679.8076,-251.2 679.8076,-245.2 685.8076,-239.2 691.8076,-239.2 691.8076,-239.2 950.5128,-239.2 950.5128,-239.2 956.5128,-239.2 962.5128,-245.2 962.5128,-251.2 962.5128,-251.2 962.5128,-319.2 962.5128,-319.2 962.5128,-325.2 956.5128,-331.2 950.5128,-331.2"/>
<text text-anchor="start" x="687.7339" y="-314.6" font-family="Helvetica,sans-Serif" font-size="14.00" fill="#000000">Preferred device for an online course ≤ 0.5</text>
<text text-anchor="start" x="784.7826" y="-297.8" font-family="Helvetica,sans-Serif" font-size="14.00" fill="#000000">gini = 0.451</text>
<text text-anchor="start" x="775.4509" y="-281" font-family="Helvetica,sans-Serif" font-size="14.00" fill="#000000">samples = 520</text>
<text text-anchor="start" x="765.3261" y="-264.2" font-family="Helvetica,sans-Serif" font-size="14.00" fill="#000000">value = [341, 179]</text>
<text text-anchor="start" x="793.3464" y="-247.4" font-family="Helvetica,sans-Serif" font-size="14.00" fill="#000000">class = 0</text>
</g>
<!-- 2&#45;&gt;10 -->
<g id="edge10" class="edge">
<title>2-&gt;10</title>
<path fill="none" stroke="#000000" d="M821.1602,-366.9891C821.1602,-358.7417 821.1602,-350.0661 821.1602,-341.5724"/>
<polygon fill="#000000" stroke="#000000" points="824.6603,-341.3431 821.1602,-331.3431 817.6603,-341.3431 824.6603,-341.3431"/>
</g>
<!-- 4 -->
<g id="node5" class="node">
<title>4</title>
<path fill="#c0e0f7" stroke="#000000" d="M169.0407,-203.2C169.0407,-203.2 55.2797,-203.2 55.2797,-203.2 49.2797,-203.2 43.2797,-197.2 43.2797,-191.2 43.2797,-191.2 43.2797,-123.2 43.2797,-123.2 43.2797,-117.2 49.2797,-111.2 55.2797,-111.2 55.2797,-111.2 169.0407,-111.2 169.0407,-111.2 175.0407,-111.2 181.0407,-117.2 181.0407,-123.2 181.0407,-123.2 181.0407,-191.2 181.0407,-191.2 181.0407,-197.2 175.0407,-203.2 169.0407,-203.2"/>
<text text-anchor="start" x="51.4702" y="-186.6" font-family="Helvetica,sans-Serif" font-size="14.00" fill="#000000">Institute Type ≤ 0.5</text>
<text text-anchor="start" x="75.7826" y="-169.8" font-family="Helvetica,sans-Serif" font-size="14.00" fill="#000000">gini = 0.482</text>
<text text-anchor="start" x="70.3422" y="-153" font-family="Helvetica,sans-Serif" font-size="14.00" fill="#000000">samples = 32</text>
<text text-anchor="start" x="64.1087" y="-136.2" font-family="Helvetica,sans-Serif" font-size="14.00" fill="#000000">value = [13, 19]</text>
<text text-anchor="start" x="84.3464" y="-119.4" font-family="Helvetica,sans-Serif" font-size="14.00" fill="#000000">class = 1</text>
</g>
<!-- 3&#45;&gt;4 -->
<g id="edge4" class="edge">
<title>3-&gt;4</title>
<path fill="none" stroke="#000000" d="M276.3875,-239.1556C247.4868,-228.3118 217.5106,-216.115 190.1602,-203.2 190.0669,-203.1559 189.9736,-203.1118 189.8802,-203.0676"/>
<polygon fill="#000000" stroke="#000000" points="191.6425,-200.0341 181.1247,-198.7585 188.5514,-206.3146 191.6425,-200.0341"/>
</g>
<!-- 7 -->
<g id="node8" class="node">
<title>7</title>
<path fill="#f7dac4" stroke="#000000" d="M619.3789,-203.2C619.3789,-203.2 210.9415,-203.2 210.9415,-203.2 204.9415,-203.2 198.9415,-197.2 198.9415,-191.2 198.9415,-191.2 198.9415,-123.2 198.9415,-123.2 198.9415,-117.2 204.9415,-111.2 210.9415,-111.2 210.9415,-111.2 619.3789,-111.2 619.3789,-111.2 625.3789,-111.2 631.3789,-117.2 631.3789,-123.2 631.3789,-123.2 631.3789,-191.2 631.3789,-191.2 631.3789,-197.2 625.3789,-203.2 619.3789,-203.2"/>
<text text-anchor="start" x="207.0509" y="-186.6" font-family="Helvetica,sans-Serif" font-size="14.00" fill="#000000">Knowledge increased after online education (comparatively)? ≤ 0.5</text>
<text text-anchor="start" x="378.7826" y="-169.8" font-family="Helvetica,sans-Serif" font-size="14.00" fill="#000000">gini = 0.485</text>
<text text-anchor="start" x="369.4509" y="-153" font-family="Helvetica,sans-Serif" font-size="14.00" fill="#000000">samples = 143</text>
<text text-anchor="start" x="367.1087" y="-136.2" font-family="Helvetica,sans-Serif" font-size="14.00" fill="#000000">value = [84, 59]</text>
<text text-anchor="start" x="387.3464" y="-119.4" font-family="Helvetica,sans-Serif" font-size="14.00" fill="#000000">class = 0</text>
</g>
<!-- 3&#45;&gt;7 -->
<g id="edge7" class="edge">
<title>3-&gt;7</title>
<path fill="none" stroke="#000000" d="M415.1602,-238.9891C415.1602,-230.7417 415.1602,-222.0661 415.1602,-213.5724"/>
<polygon fill="#000000" stroke="#000000" points="418.6603,-213.3431 415.1602,-203.3431 411.6603,-213.3431 418.6603,-213.3431"/>
</g>
<!-- 5 -->
<g id="node6" class="node">
<title>5</title>
<path fill="#94caf1" stroke="#000000" d="M92.4811,-75.3003C92.4811,-75.3003 11.8393,-75.3003 11.8393,-75.3003 5.8393,-75.3003 -.1607,-69.3003 -.1607,-63.3003 -.1607,-63.3003 -.1607,-11.8997 -.1607,-11.8997 -.1607,-5.8997 5.8393,.1003 11.8393,.1003 11.8393,.1003 92.4811,.1003 92.4811,.1003 98.4811,.1003 104.4811,-5.8997 104.4811,-11.8997 104.4811,-11.8997 104.4811,-63.3003 104.4811,-63.3003 104.4811,-69.3003 98.4811,-75.3003 92.4811,-75.3003"/>
<text text-anchor="start" x="15.7826" y="-58.6" font-family="Helvetica,sans-Serif" font-size="14.00" fill="#000000">gini = 0.432</text>
<text text-anchor="start" x="10.3422" y="-41.8" font-family="Helvetica,sans-Serif" font-size="14.00" fill="#000000">samples = 19</text>
<text text-anchor="start" x="8" y="-25" font-family="Helvetica,sans-Serif" font-size="14.00" fill="#000000">value = [6, 13]</text>
<text text-anchor="start" x="24.3464" y="-8.2" font-family="Helvetica,sans-Serif" font-size="14.00" fill="#000000">class = 1</text>
</g>
<!-- 4&#45;&gt;5 -->
<g id="edge5" class="edge">
<title>4-&gt;5</title>
<path fill="none" stroke="#000000" d="M88.9626,-110.9595C84.5572,-102.178 79.9451,-92.9846 75.5342,-84.1922"/>
<polygon fill="#000000" stroke="#000000" points="78.6401,-82.5777 71.0275,-75.2088 72.3832,-85.7166 78.6401,-82.5777"/>
</g>
<!-- 6 -->
<g id="node7" class="node">
<title>6</title>
<path fill="#fbede3" stroke="#000000" d="M209.7969,-75.3003C209.7969,-75.3003 134.5235,-75.3003 134.5235,-75.3003 128.5235,-75.3003 122.5235,-69.3003 122.5235,-63.3003 122.5235,-63.3003 122.5235,-11.8997 122.5235,-11.8997 122.5235,-5.8997 128.5235,.1003 134.5235,.1003 134.5235,.1003 209.7969,.1003 209.7969,.1003 215.7969,.1003 221.7969,-5.8997 221.7969,-11.8997 221.7969,-11.8997 221.7969,-63.3003 221.7969,-63.3003 221.7969,-69.3003 215.7969,-75.3003 209.7969,-75.3003"/>
<text text-anchor="start" x="135.7826" y="-58.6" font-family="Helvetica,sans-Serif" font-size="14.00" fill="#000000">gini = 0.497</text>
<text text-anchor="start" x="130.3422" y="-41.8" font-family="Helvetica,sans-Serif" font-size="14.00" fill="#000000">samples = 13</text>
<text text-anchor="start" x="131.8913" y="-25" font-family="Helvetica,sans-Serif" font-size="14.00" fill="#000000">value = [7, 6]</text>
<text text-anchor="start" x="144.3464" y="-8.2" font-family="Helvetica,sans-Serif" font-size="14.00" fill="#000000">class = 0</text>
</g>
<!-- 4&#45;&gt;6 -->
<g id="edge6" class="edge">
<title>4-&gt;6</title>
<path fill="none" stroke="#000000" d="M135.3578,-110.9595C139.7632,-102.178 144.3753,-92.9846 148.7862,-84.1922"/>
<polygon fill="#000000" stroke="#000000" points="151.9372,-85.7166 153.2929,-75.2088 145.6803,-82.5777 151.9372,-85.7166"/>
</g>
<!-- 8 -->
<g id="node9" class="node">
<title>8</title>
<path fill="#fbeade" stroke="#000000" d="M353.2632,-75.3003C353.2632,-75.3003 265.0572,-75.3003 265.0572,-75.3003 259.0572,-75.3003 253.0572,-69.3003 253.0572,-63.3003 253.0572,-63.3003 253.0572,-11.8997 253.0572,-11.8997 253.0572,-5.8997 259.0572,.1003 265.0572,.1003 265.0572,.1003 353.2632,.1003 353.2632,.1003 359.2632,.1003 365.2632,-5.8997 365.2632,-11.8997 365.2632,-11.8997 365.2632,-63.3003 365.2632,-63.3003 365.2632,-69.3003 359.2632,-75.3003 353.2632,-75.3003"/>
<text text-anchor="start" x="272.7826" y="-58.6" font-family="Helvetica,sans-Serif" font-size="14.00" fill="#000000">gini = 0.496</text>
<text text-anchor="start" x="267.3422" y="-41.8" font-family="Helvetica,sans-Serif" font-size="14.00" fill="#000000">samples = 99</text>
<text text-anchor="start" x="261.1087" y="-25" font-family="Helvetica,sans-Serif" font-size="14.00" fill="#000000">value = [54, 45]</text>
<text text-anchor="start" x="281.3464" y="-8.2" font-family="Helvetica,sans-Serif" font-size="14.00" fill="#000000">class = 0</text>
</g>
<!-- 7&#45;&gt;8 -->
<g id="edge8" class="edge">
<title>7-&gt;8</title>
<path fill="none" stroke="#000000" d="M374.1778,-110.9595C365.9852,-101.7158 357.3882,-92.0157 349.227,-82.8074"/>
<polygon fill="#000000" stroke="#000000" points="351.7445,-80.3711 342.4924,-75.2088 346.5059,-85.0141 351.7445,-80.3711"/>
</g>
<!-- 9 -->
<g id="node10" class="node">
<title>9</title>
<path fill="#f1bc95" stroke="#000000" d="M483.2632,-75.3003C483.2632,-75.3003 395.0572,-75.3003 395.0572,-75.3003 389.0572,-75.3003 383.0572,-69.3003 383.0572,-63.3003 383.0572,-63.3003 383.0572,-11.8997 383.0572,-11.8997 383.0572,-5.8997 389.0572,.1003 395.0572,.1003 395.0572,.1003 483.2632,.1003 483.2632,.1003 489.2632,.1003 495.2632,-5.8997 495.2632,-11.8997 495.2632,-11.8997 495.2632,-63.3003 495.2632,-63.3003 495.2632,-69.3003 489.2632,-75.3003 483.2632,-75.3003"/>
<text text-anchor="start" x="402.7826" y="-58.6" font-family="Helvetica,sans-Serif" font-size="14.00" fill="#000000">gini = 0.434</text>
<text text-anchor="start" x="397.3422" y="-41.8" font-family="Helvetica,sans-Serif" font-size="14.00" fill="#000000">samples = 44</text>
<text text-anchor="start" x="391.1087" y="-25" font-family="Helvetica,sans-Serif" font-size="14.00" fill="#000000">value = [30, 14]</text>
<text text-anchor="start" x="411.3464" y="-8.2" font-family="Helvetica,sans-Serif" font-size="14.00" fill="#000000">class = 0</text>
</g>
<!-- 7&#45;&gt;9 -->
<g id="edge9" class="edge">
<title>7-&gt;9</title>
<path fill="none" stroke="#000000" d="M424.4392,-110.9595C426.1458,-102.4553 427.9298,-93.5648 429.6432,-85.0264"/>
<polygon fill="#000000" stroke="#000000" points="433.0773,-85.702 431.6133,-75.2088 426.2141,-84.3247 433.0773,-85.702"/>
</g>
<!-- 11 -->
<g id="node12" class="node">
<title>11</title>
<path fill="#f1b992" stroke="#000000" d="M764.8288,-203.2C764.8288,-203.2 661.4916,-203.2 661.4916,-203.2 655.4916,-203.2 649.4916,-197.2 649.4916,-191.2 649.4916,-191.2 649.4916,-123.2 649.4916,-123.2 649.4916,-117.2 655.4916,-111.2 661.4916,-111.2 661.4916,-111.2 764.8288,-111.2 764.8288,-111.2 770.8288,-111.2 776.8288,-117.2 776.8288,-123.2 776.8288,-123.2 776.8288,-191.2 776.8288,-191.2 776.8288,-197.2 770.8288,-203.2 764.8288,-203.2"/>
<text text-anchor="start" x="674.2493" y="-186.6" font-family="Helvetica,sans-Serif" font-size="14.00" fill="#000000">Age? ≤ 25.5</text>
<text text-anchor="start" x="676.7826" y="-169.8" font-family="Helvetica,sans-Serif" font-size="14.00" fill="#000000">gini = 0.427</text>
<text text-anchor="start" x="667.4509" y="-153" font-family="Helvetica,sans-Serif" font-size="14.00" fill="#000000">samples = 349</text>
<text text-anchor="start" x="657.3261" y="-136.2" font-family="Helvetica,sans-Serif" font-size="14.00" fill="#000000">value = [241, 108]</text>
<text text-anchor="start" x="685.3464" y="-119.4" font-family="Helvetica,sans-Serif" font-size="14.00" fill="#000000">class = 0</text>
</g>
<!-- 10&#45;&gt;11 -->
<g id="edge11" class="edge">
<title>10-&gt;11</title>
<path fill="none" stroke="#000000" d="M782.1697,-238.9891C774.5228,-229.926 766.4396,-220.3459 758.6031,-211.0582"/>
<polygon fill="#000000" stroke="#000000" points="761.2172,-208.729 752.0934,-203.3431 755.8672,-213.2431 761.2172,-208.729"/>
</g>
<!-- 14 -->
<g id="node15" class="node">
<title>14</title>
<path fill="#f7dac6" stroke="#000000" d="M996.7678,-203.2C996.7678,-203.2 807.5526,-203.2 807.5526,-203.2 801.5526,-203.2 795.5526,-197.2 795.5526,-191.2 795.5526,-191.2 795.5526,-123.2 795.5526,-123.2 795.5526,-117.2 801.5526,-111.2 807.5526,-111.2 807.5526,-111.2 996.7678,-111.2 996.7678,-111.2 1002.7678,-111.2 1008.7678,-117.2 1008.7678,-123.2 1008.7678,-123.2 1008.7678,-191.2 1008.7678,-191.2 1008.7678,-197.2 1002.7678,-203.2 996.7678,-203.2"/>
<text text-anchor="start" x="803.3566" y="-186.6" font-family="Helvetica,sans-Serif" font-size="14.00" fill="#000000">Have Internet availability? ≤ 0.5</text>
<text text-anchor="start" x="865.7826" y="-169.8" font-family="Helvetica,sans-Serif" font-size="14.00" fill="#000000">gini = 0.486</text>
<text text-anchor="start" x="856.4509" y="-153" font-family="Helvetica,sans-Serif" font-size="14.00" fill="#000000">samples = 171</text>
<text text-anchor="start" x="850.2174" y="-136.2" font-family="Helvetica,sans-Serif" font-size="14.00" fill="#000000">value = [100, 71]</text>
<text text-anchor="start" x="874.3464" y="-119.4" font-family="Helvetica,sans-Serif" font-size="14.00" fill="#000000">class = 0</text>
</g>
<!-- 10&#45;&gt;14 -->
<g id="edge14" class="edge">
<title>10-&gt;14</title>
<path fill="none" stroke="#000000" d="M850.4031,-238.9891C855.9662,-230.1979 861.8372,-220.9202 867.5486,-211.8949"/>
<polygon fill="#000000" stroke="#000000" points="870.5704,-213.6649 872.9603,-203.3431 864.6553,-209.9217 870.5704,-213.6649"/>
</g>
<!-- 12 -->
<g id="node13" class="node">
<title>12</title>
<path fill="#f2be99" stroke="#000000" d="M645.0459,-75.3003C645.0459,-75.3003 549.2745,-75.3003 549.2745,-75.3003 543.2745,-75.3003 537.2745,-69.3003 537.2745,-63.3003 537.2745,-63.3003 537.2745,-11.8997 537.2745,-11.8997 537.2745,-5.8997 543.2745,.1003 549.2745,.1003 549.2745,.1003 645.0459,.1003 645.0459,.1003 651.0459,.1003 657.0459,-5.8997 657.0459,-11.8997 657.0459,-11.8997 657.0459,-63.3003 657.0459,-63.3003 657.0459,-69.3003 651.0459,-75.3003 645.0459,-75.3003"/>
<text text-anchor="start" x="564.6739" y="-58.6" font-family="Helvetica,sans-Serif" font-size="14.00" fill="#000000">gini = 0.44</text>
<text text-anchor="start" x="551.4509" y="-41.8" font-family="Helvetica,sans-Serif" font-size="14.00" fill="#000000">samples = 300</text>
<text text-anchor="start" x="545.2174" y="-25" font-family="Helvetica,sans-Serif" font-size="14.00" fill="#000000">value = [202, 98]</text>
<text text-anchor="start" x="569.3464" y="-8.2" font-family="Helvetica,sans-Serif" font-size="14.00" fill="#000000">class = 0</text>
</g>
<!-- 11&#45;&gt;12 -->
<g id="edge12" class="edge">
<title>11-&gt;12</title>
<path fill="none" stroke="#000000" d="M668.3116,-110.9595C659.2564,-101.6233 649.7498,-91.8217 640.739,-82.5313"/>
<polygon fill="#000000" stroke="#000000" points="643.1116,-79.9503 633.637,-75.2088 638.0868,-84.8239 643.1116,-79.9503"/>
</g>
<!-- 13 -->
<g id="node14" class="node">
<title>13</title>
<path fill="#eca16c" stroke="#000000" d="M775.2632,-75.3003C775.2632,-75.3003 687.0572,-75.3003 687.0572,-75.3003 681.0572,-75.3003 675.0572,-69.3003 675.0572,-63.3003 675.0572,-63.3003 675.0572,-11.8997 675.0572,-11.8997 675.0572,-5.8997 681.0572,.1003 687.0572,.1003 687.0572,.1003 775.2632,.1003 775.2632,.1003 781.2632,.1003 787.2632,-5.8997 787.2632,-11.8997 787.2632,-11.8997 787.2632,-63.3003 787.2632,-63.3003 787.2632,-69.3003 781.2632,-75.3003 775.2632,-75.3003"/>
<text text-anchor="start" x="694.7826" y="-58.6" font-family="Helvetica,sans-Serif" font-size="14.00" fill="#000000">gini = 0.325</text>
<text text-anchor="start" x="689.3422" y="-41.8" font-family="Helvetica,sans-Serif" font-size="14.00" fill="#000000">samples = 49</text>
<text text-anchor="start" x="683.1087" y="-25" font-family="Helvetica,sans-Serif" font-size="14.00" fill="#000000">value = [39, 10]</text>
<text text-anchor="start" x="703.3464" y="-8.2" font-family="Helvetica,sans-Serif" font-size="14.00" fill="#000000">class = 0</text>
</g>
<!-- 11&#45;&gt;13 -->
<g id="edge13" class="edge">
<title>11-&gt;13</title>
<path fill="none" stroke="#000000" d="M720.1195,-110.9595C721.3855,-102.5477 722.7083,-93.7581 723.9805,-85.3049"/>
<polygon fill="#000000" stroke="#000000" points="727.4727,-85.6184 725.5,-75.2088 720.5506,-84.5765 727.4727,-85.6184"/>
</g>
<!-- 15 -->
<g id="node16" class="node">
<title>15</title>
<path fill="#f0b890" stroke="#000000" d="M917.2632,-75.3003C917.2632,-75.3003 829.0572,-75.3003 829.0572,-75.3003 823.0572,-75.3003 817.0572,-69.3003 817.0572,-63.3003 817.0572,-63.3003 817.0572,-11.8997 817.0572,-11.8997 817.0572,-5.8997 823.0572,.1003 829.0572,.1003 829.0572,.1003 917.2632,.1003 917.2632,.1003 923.2632,.1003 929.2632,-5.8997 929.2632,-11.8997 929.2632,-11.8997 929.2632,-63.3003 929.2632,-63.3003 929.2632,-69.3003 923.2632,-75.3003 917.2632,-75.3003"/>
<text text-anchor="start" x="836.7826" y="-58.6" font-family="Helvetica,sans-Serif" font-size="14.00" fill="#000000">gini = 0.424</text>
<text text-anchor="start" x="831.3422" y="-41.8" font-family="Helvetica,sans-Serif" font-size="14.00" fill="#000000">samples = 59</text>
<text text-anchor="start" x="825.1087" y="-25" font-family="Helvetica,sans-Serif" font-size="14.00" fill="#000000">value = [41, 18]</text>
<text text-anchor="start" x="845.3464" y="-8.2" font-family="Helvetica,sans-Serif" font-size="14.00" fill="#000000">class = 0</text>
</g>
<!-- 14&#45;&gt;15 -->
<g id="edge15" class="edge">
<title>14-&gt;15</title>
<path fill="none" stroke="#000000" d="M890.948,-110.9595C888.886,-102.4553 886.7303,-93.5648 884.6599,-85.0264"/>
<polygon fill="#000000" stroke="#000000" points="888.0374,-84.1024 882.2794,-75.2088 881.2345,-85.752 888.0374,-84.1024"/>
</g>
<!-- 16 -->
<g id="node17" class="node">
<title>16</title>
<path fill="#fcf2eb" stroke="#000000" d="M1047.2632,-75.3003C1047.2632,-75.3003 959.0572,-75.3003 959.0572,-75.3003 953.0572,-75.3003 947.0572,-69.3003 947.0572,-63.3003 947.0572,-63.3003 947.0572,-11.8997 947.0572,-11.8997 947.0572,-5.8997 953.0572,.1003 959.0572,.1003 959.0572,.1003 1047.2632,.1003 1047.2632,.1003 1053.2632,.1003 1059.2632,-5.8997 1059.2632,-11.8997 1059.2632,-11.8997 1059.2632,-63.3003 1059.2632,-63.3003 1059.2632,-69.3003 1053.2632,-75.3003 1047.2632,-75.3003"/>
<text text-anchor="start" x="966.7826" y="-58.6" font-family="Helvetica,sans-Serif" font-size="14.00" fill="#000000">gini = 0.499</text>
<text text-anchor="start" x="957.4509" y="-41.8" font-family="Helvetica,sans-Serif" font-size="14.00" fill="#000000">samples = 112</text>
<text text-anchor="start" x="955.1087" y="-25" font-family="Helvetica,sans-Serif" font-size="14.00" fill="#000000">value = [59, 53]</text>
<text text-anchor="start" x="975.3464" y="-8.2" font-family="Helvetica,sans-Serif" font-size="14.00" fill="#000000">class = 0</text>
</g>
<!-- 14&#45;&gt;16 -->
<g id="edge16" class="edge">
<title>14-&gt;16</title>
<path fill="none" stroke="#000000" d="M941.2094,-110.9595C948.9375,-101.8082 957.0433,-92.2097 964.75,-83.0838"/>
<polygon fill="#000000" stroke="#000000" points="967.6223,-85.1072 971.4002,-75.2088 962.2742,-80.5908 967.6223,-85.1072"/>
</g>
<!-- 18 -->
<g id="node19" class="node">
<title>18</title>
<path fill="#efb083" stroke="#000000" d="M1704.905,-331.2C1704.905,-331.2 1519.4154,-331.2 1519.4154,-331.2 1513.4154,-331.2 1507.4154,-325.2 1507.4154,-319.2 1507.4154,-319.2 1507.4154,-251.2 1507.4154,-251.2 1507.4154,-245.2 1513.4154,-239.2 1519.4154,-239.2 1519.4154,-239.2 1704.905,-239.2 1704.905,-239.2 1710.905,-239.2 1716.905,-245.2 1716.905,-251.2 1716.905,-251.2 1716.905,-319.2 1716.905,-319.2 1716.905,-325.2 1710.905,-331.2 1704.905,-331.2"/>
<text text-anchor="start" x="1515.2879" y="-314.6" font-family="Helvetica,sans-Serif" font-size="14.00" fill="#000000">Education Institute Area? ≤ 0.5</text>
<text text-anchor="start" x="1575.7826" y="-297.8" font-family="Helvetica,sans-Serif" font-size="14.00" fill="#000000">gini = 0.396</text>
<text text-anchor="start" x="1566.4509" y="-281" font-family="Helvetica,sans-Serif" font-size="14.00" fill="#000000">samples = 389</text>
<text text-anchor="start" x="1556.3261" y="-264.2" font-family="Helvetica,sans-Serif" font-size="14.00" fill="#000000">value = [283, 106]</text>
<text text-anchor="start" x="1584.3464" y="-247.4" font-family="Helvetica,sans-Serif" font-size="14.00" fill="#000000">class = 0</text>
</g>
<!-- 17&#45;&gt;18 -->
<g id="edge18" class="edge">
<title>17-&gt;18</title>
<path fill="none" stroke="#000000" d="M1738.317,-367.1699C1723.1461,-357.3127 1707.0228,-346.8366 1691.5532,-336.7853"/>
<polygon fill="#000000" stroke="#000000" points="1693.3289,-333.7652 1683.0365,-331.2516 1689.515,-339.635 1693.3289,-333.7652"/>
</g>
<!-- 25 -->
<g id="node26" class="node">
<title>25</title>
<path fill="#f3c5a4" stroke="#000000" d="M2176.9203,-331.2C2176.9203,-331.2 1837.4001,-331.2 1837.4001,-331.2 1831.4001,-331.2 1825.4001,-325.2 1825.4001,-319.2 1825.4001,-319.2 1825.4001,-251.2 1825.4001,-251.2 1825.4001,-245.2 1831.4001,-239.2 1837.4001,-239.2 1837.4001,-239.2 2176.9203,-239.2 2176.9203,-239.2 2182.9203,-239.2 2188.9203,-245.2 2188.9203,-251.2 2188.9203,-251.2 2188.9203,-319.2 2188.9203,-319.2 2188.9203,-325.2 2182.9203,-331.2 2176.9203,-331.2"/>
<text text-anchor="start" x="1833.2802" y="-314.6" font-family="Helvetica,sans-Serif" font-size="14.00" fill="#000000">Class performance increased in online education? ≤ 0.5</text>
<text text-anchor="start" x="1970.7826" y="-297.8" font-family="Helvetica,sans-Serif" font-size="14.00" fill="#000000">gini = 0.455</text>
<text text-anchor="start" x="1961.4509" y="-281" font-family="Helvetica,sans-Serif" font-size="14.00" fill="#000000">samples = 434</text>
<text text-anchor="start" x="1951.3261" y="-264.2" font-family="Helvetica,sans-Serif" font-size="14.00" fill="#000000">value = [282, 152]</text>
<text text-anchor="start" x="1979.3464" y="-247.4" font-family="Helvetica,sans-Serif" font-size="14.00" fill="#000000">class = 0</text>
</g>
<!-- 17&#45;&gt;25 -->
<g id="edge25" class="edge">
<title>17-&gt;25</title>
<path fill="none" stroke="#000000" d="M1880.363,-367.1699C1895.6109,-357.3127 1911.8161,-346.8366 1927.3641,-336.7853"/>
<polygon fill="#000000" stroke="#000000" points="1929.4262,-339.62 1935.9241,-331.2516 1925.6259,-333.7414 1929.4262,-339.62"/>
</g>
<!-- 19 -->
<g id="node20" class="node">
<title>19</title>
<path fill="#f3c5a3" stroke="#000000" d="M1421.1933,-203.2C1421.1933,-203.2 1039.1271,-203.2 1039.1271,-203.2 1033.1271,-203.2 1027.1271,-197.2 1027.1271,-191.2 1027.1271,-191.2 1027.1271,-123.2 1027.1271,-123.2 1027.1271,-117.2 1033.1271,-111.2 1039.1271,-111.2 1039.1271,-111.2 1421.1933,-111.2 1421.1933,-111.2 1427.1933,-111.2 1433.1933,-117.2 1433.1933,-123.2 1433.1933,-123.2 1433.1933,-191.2 1433.1933,-191.2 1433.1933,-197.2 1427.1933,-203.2 1421.1933,-203.2"/>
<text text-anchor="start" x="1034.8938" y="-186.6" font-family="Helvetica,sans-Serif" font-size="14.00" fill="#000000">Result increased after online education  (comparatively)? ≤ 0.5</text>
<text text-anchor="start" x="1193.7826" y="-169.8" font-family="Helvetica,sans-Serif" font-size="14.00" fill="#000000">gini = 0.455</text>
<text text-anchor="start" x="1188.3422" y="-153" font-family="Helvetica,sans-Serif" font-size="14.00" fill="#000000">samples = 83</text>
<text text-anchor="start" x="1182.1087" y="-136.2" font-family="Helvetica,sans-Serif" font-size="14.00" fill="#000000">value = [54, 29]</text>
<text text-anchor="start" x="1202.3464" y="-119.4" font-family="Helvetica,sans-Serif" font-size="14.00" fill="#000000">class = 0</text>
</g>
<!-- 18&#45;&gt;19 -->
<g id="edge19" class="edge">
<title>18-&gt;19</title>
<path fill="none" stroke="#000000" d="M1507.2718,-250.0541C1467.1457,-236.6088 1420.6067,-221.0145 1377.2575,-206.4891"/>
<polygon fill="#000000" stroke="#000000" points="1378.3644,-203.1688 1367.7705,-203.3103 1376.1403,-209.8061 1378.3644,-203.1688"/>
</g>
<!-- 22 -->
<g id="node23" class="node">
<title>22</title>
<path fill="#eeab7c" stroke="#000000" d="M1760.9371,-203.2C1760.9371,-203.2 1463.3833,-203.2 1463.3833,-203.2 1457.3833,-203.2 1451.3833,-197.2 1451.3833,-191.2 1451.3833,-191.2 1451.3833,-123.2 1451.3833,-123.2 1451.3833,-117.2 1457.3833,-111.2 1463.3833,-111.2 1463.3833,-111.2 1760.9371,-111.2 1760.9371,-111.2 1766.9371,-111.2 1772.9371,-117.2 1772.9371,-123.2 1772.9371,-123.2 1772.9371,-191.2 1772.9371,-191.2 1772.9371,-197.2 1766.9371,-203.2 1760.9371,-203.2"/>
<text text-anchor="start" x="1459.2718" y="-186.6" font-family="Helvetica,sans-Serif" font-size="14.00" fill="#000000">Total hours of study after online education? ≤ 2.5</text>
<text text-anchor="start" x="1575.7826" y="-169.8" font-family="Helvetica,sans-Serif" font-size="14.00" fill="#000000">gini = 0.377</text>
<text text-anchor="start" x="1566.4509" y="-153" font-family="Helvetica,sans-Serif" font-size="14.00" fill="#000000">samples = 306</text>
<text text-anchor="start" x="1560.2174" y="-136.2" font-family="Helvetica,sans-Serif" font-size="14.00" fill="#000000">value = [229, 77]</text>
<text text-anchor="start" x="1584.3464" y="-119.4" font-family="Helvetica,sans-Serif" font-size="14.00" fill="#000000">class = 0</text>
</g>
<!-- 18&#45;&gt;22 -->
<g id="edge22" class="edge">
<title>18-&gt;22</title>
<path fill="none" stroke="#000000" d="M1612.1602,-238.9891C1612.1602,-230.7417 1612.1602,-222.0661 1612.1602,-213.5724"/>
<polygon fill="#000000" stroke="#000000" points="1615.6603,-213.3431 1612.1602,-203.3431 1608.6603,-213.3431 1615.6603,-213.3431"/>
</g>
<!-- 20 -->
<g id="node21" class="node">
<title>20</title>
<path fill="#eda978" stroke="#000000" d="M1243.4811,-75.3003C1243.4811,-75.3003 1162.8393,-75.3003 1162.8393,-75.3003 1156.8393,-75.3003 1150.8393,-69.3003 1150.8393,-63.3003 1150.8393,-63.3003 1150.8393,-11.8997 1150.8393,-11.8997 1150.8393,-5.8997 1156.8393,.1003 1162.8393,.1003 1162.8393,.1003 1243.4811,.1003 1243.4811,.1003 1249.4811,.1003 1255.4811,-5.8997 1255.4811,-11.8997 1255.4811,-11.8997 1255.4811,-63.3003 1255.4811,-63.3003 1255.4811,-69.3003 1249.4811,-75.3003 1243.4811,-75.3003"/>
<text text-anchor="start" x="1166.7826" y="-58.6" font-family="Helvetica,sans-Serif" font-size="14.00" fill="#000000">gini = 0.365</text>
<text text-anchor="start" x="1161.3422" y="-41.8" font-family="Helvetica,sans-Serif" font-size="14.00" fill="#000000">samples = 25</text>
<text text-anchor="start" x="1159" y="-25" font-family="Helvetica,sans-Serif" font-size="14.00" fill="#000000">value = [19, 6]</text>
<text text-anchor="start" x="1175.3464" y="-8.2" font-family="Helvetica,sans-Serif" font-size="14.00" fill="#000000">class = 0</text>
</g>
<!-- 19&#45;&gt;20 -->
<g id="edge20" class="edge">
<title>19-&gt;20</title>
<path fill="none" stroke="#000000" d="M1219.7213,-110.9595C1217.8014,-102.4553 1215.7944,-93.5648 1213.8668,-85.0264"/>
<polygon fill="#000000" stroke="#000000" points="1217.2668,-84.1926 1211.6505,-75.2088 1210.4386,-85.7341 1217.2668,-84.1926"/>
</g>
<!-- 21 -->
<g id="node22" class="node">
<title>21</title>
<path fill="#f6d4bb" stroke="#000000" d="M1373.2632,-75.3003C1373.2632,-75.3003 1285.0572,-75.3003 1285.0572,-75.3003 1279.0572,-75.3003 1273.0572,-69.3003 1273.0572,-63.3003 1273.0572,-63.3003 1273.0572,-11.8997 1273.0572,-11.8997 1273.0572,-5.8997 1279.0572,.1003 1285.0572,.1003 1285.0572,.1003 1373.2632,.1003 1373.2632,.1003 1379.2632,.1003 1385.2632,-5.8997 1385.2632,-11.8997 1385.2632,-11.8997 1385.2632,-63.3003 1385.2632,-63.3003 1385.2632,-69.3003 1379.2632,-75.3003 1373.2632,-75.3003"/>
<text text-anchor="start" x="1292.7826" y="-58.6" font-family="Helvetica,sans-Serif" font-size="14.00" fill="#000000">gini = 0.479</text>
<text text-anchor="start" x="1287.3422" y="-41.8" font-family="Helvetica,sans-Serif" font-size="14.00" fill="#000000">samples = 58</text>
<text text-anchor="start" x="1281.1087" y="-25" font-family="Helvetica,sans-Serif" font-size="14.00" fill="#000000">value = [35, 23]</text>
<text text-anchor="start" x="1301.3464" y="-8.2" font-family="Helvetica,sans-Serif" font-size="14.00" fill="#000000">class = 0</text>
</g>
<!-- 19&#45;&gt;21 -->
<g id="edge21" class="edge">
<title>19-&gt;21</title>
<path fill="none" stroke="#000000" d="M1268.4362,-110.9595C1276.0113,-101.8082 1283.9565,-92.2097 1291.5106,-83.0838"/>
<polygon fill="#000000" stroke="#000000" points="1294.3488,-85.1439 1298.0291,-75.2088 1288.9565,-80.6804 1294.3488,-85.1439"/>
</g>
<!-- 23 -->
<g id="node24" class="node">
<title>23</title>
<path fill="#eb9f69" stroke="#000000" d="M1549.2632,-75.3003C1549.2632,-75.3003 1461.0572,-75.3003 1461.0572,-75.3003 1455.0572,-75.3003 1449.0572,-69.3003 1449.0572,-63.3003 1449.0572,-63.3003 1449.0572,-11.8997 1449.0572,-11.8997 1449.0572,-5.8997 1455.0572,.1003 1461.0572,.1003 1461.0572,.1003 1549.2632,.1003 1549.2632,.1003 1555.2632,.1003 1561.2632,-5.8997 1561.2632,-11.8997 1561.2632,-11.8997 1561.2632,-63.3003 1561.2632,-63.3003 1561.2632,-69.3003 1555.2632,-75.3003 1549.2632,-75.3003"/>
<text text-anchor="start" x="1468.7826" y="-58.6" font-family="Helvetica,sans-Serif" font-size="14.00" fill="#000000">gini = 0.314</text>
<text text-anchor="start" x="1463.3422" y="-41.8" font-family="Helvetica,sans-Serif" font-size="14.00" fill="#000000">samples = 77</text>
<text text-anchor="start" x="1457.1087" y="-25" font-family="Helvetica,sans-Serif" font-size="14.00" fill="#000000">value = [62, 15]</text>
<text text-anchor="start" x="1477.3464" y="-8.2" font-family="Helvetica,sans-Serif" font-size="14.00" fill="#000000">class = 0</text>
</g>
<!-- 22&#45;&gt;23 -->
<g id="edge23" class="edge">
<title>22-&gt;23</title>
<path fill="none" stroke="#000000" d="M1570.7912,-110.9595C1562.5213,-101.7158 1553.8432,-92.0157 1545.6049,-82.8074"/>
<polygon fill="#000000" stroke="#000000" points="1548.083,-80.3279 1538.8069,-75.2088 1542.866,-84.9953 1548.083,-80.3279"/>
</g>
<!-- 24 -->
<g id="node25" class="node">
<title>24</title>
<path fill="#efb083" stroke="#000000" d="M1687.0459,-75.3003C1687.0459,-75.3003 1591.2745,-75.3003 1591.2745,-75.3003 1585.2745,-75.3003 1579.2745,-69.3003 1579.2745,-63.3003 1579.2745,-63.3003 1579.2745,-11.8997 1579.2745,-11.8997 1579.2745,-5.8997 1585.2745,.1003 1591.2745,.1003 1591.2745,.1003 1687.0459,.1003 1687.0459,.1003 1693.0459,.1003 1699.0459,-5.8997 1699.0459,-11.8997 1699.0459,-11.8997 1699.0459,-63.3003 1699.0459,-63.3003 1699.0459,-69.3003 1693.0459,-75.3003 1687.0459,-75.3003"/>
<text text-anchor="start" x="1602.7826" y="-58.6" font-family="Helvetica,sans-Serif" font-size="14.00" fill="#000000">gini = 0.395</text>
<text text-anchor="start" x="1593.4509" y="-41.8" font-family="Helvetica,sans-Serif" font-size="14.00" fill="#000000">samples = 229</text>
<text text-anchor="start" x="1587.2174" y="-25" font-family="Helvetica,sans-Serif" font-size="14.00" fill="#000000">value = [167, 62]</text>
<text text-anchor="start" x="1611.3464" y="-8.2" font-family="Helvetica,sans-Serif" font-size="14.00" fill="#000000">class = 0</text>
</g>
<!-- 22&#45;&gt;24 -->
<g id="edge24" class="edge">
<title>22-&gt;24</title>
<path fill="none" stroke="#000000" d="M1622.5991,-110.9595C1624.519,-102.4553 1626.526,-93.5648 1628.4536,-85.0264"/>
<polygon fill="#000000" stroke="#000000" points="1631.8818,-85.7341 1630.6699,-75.2088 1625.0536,-84.1926 1631.8818,-85.7341"/>
</g>
<!-- 26 -->
<g id="node27" class="node">
<title>26</title>
<path fill="#f2bf9a" stroke="#000000" d="M2211.3789,-203.2C2211.3789,-203.2 1802.9415,-203.2 1802.9415,-203.2 1796.9415,-203.2 1790.9415,-197.2 1790.9415,-191.2 1790.9415,-191.2 1790.9415,-123.2 1790.9415,-123.2 1790.9415,-117.2 1796.9415,-111.2 1802.9415,-111.2 1802.9415,-111.2 2211.3789,-111.2 2211.3789,-111.2 2217.3789,-111.2 2223.3789,-117.2 2223.3789,-123.2 2223.3789,-123.2 2223.3789,-191.2 2223.3789,-191.2 2223.3789,-197.2 2217.3789,-203.2 2211.3789,-203.2"/>
<text text-anchor="start" x="1799.0509" y="-186.6" font-family="Helvetica,sans-Serif" font-size="14.00" fill="#000000">Knowledge increased after online education (comparatively)? ≤ 0.5</text>
<text text-anchor="start" x="1970.7826" y="-169.8" font-family="Helvetica,sans-Serif" font-size="14.00" fill="#000000">gini = 0.441</text>
<text text-anchor="start" x="1961.4509" y="-153" font-family="Helvetica,sans-Serif" font-size="14.00" fill="#000000">samples = 219</text>
<text text-anchor="start" x="1955.2174" y="-136.2" font-family="Helvetica,sans-Serif" font-size="14.00" fill="#000000">value = [147, 72]</text>
<text text-anchor="start" x="1979.3464" y="-119.4" font-family="Helvetica,sans-Serif" font-size="14.00" fill="#000000">class = 0</text>
</g>
<!-- 25&#45;&gt;26 -->
<g id="edge26" class="edge">
<title>25-&gt;26</title>
<path fill="none" stroke="#000000" d="M2007.1602,-238.9891C2007.1602,-230.7417 2007.1602,-222.0661 2007.1602,-213.5724"/>
<polygon fill="#000000" stroke="#000000" points="2010.6603,-213.3431 2007.1602,-203.3431 2003.6603,-213.3431 2010.6603,-213.3431"/>
</g>
<!-- 29 -->
<g id="node30" class="node">
<title>29</title>
<path fill="#f4ccae" stroke="#000000" d="M2661.3789,-203.2C2661.3789,-203.2 2252.9415,-203.2 2252.9415,-203.2 2246.9415,-203.2 2240.9415,-197.2 2240.9415,-191.2 2240.9415,-191.2 2240.9415,-123.2 2240.9415,-123.2 2240.9415,-117.2 2246.9415,-111.2 2252.9415,-111.2 2252.9415,-111.2 2661.3789,-111.2 2661.3789,-111.2 2667.3789,-111.2 2673.3789,-117.2 2673.3789,-123.2 2673.3789,-123.2 2673.3789,-191.2 2673.3789,-191.2 2673.3789,-197.2 2667.3789,-203.2 2661.3789,-203.2"/>
<text text-anchor="start" x="2249.0509" y="-186.6" font-family="Helvetica,sans-Serif" font-size="14.00" fill="#000000">Knowledge increased after online education (comparatively)? ≤ 0.5</text>
<text text-anchor="start" x="2420.7826" y="-169.8" font-family="Helvetica,sans-Serif" font-size="14.00" fill="#000000">gini = 0.467</text>
<text text-anchor="start" x="2411.4509" y="-153" font-family="Helvetica,sans-Serif" font-size="14.00" fill="#000000">samples = 215</text>
<text text-anchor="start" x="2405.2174" y="-136.2" font-family="Helvetica,sans-Serif" font-size="14.00" fill="#000000">value = [135, 80]</text>
<text text-anchor="start" x="2429.3464" y="-119.4" font-family="Helvetica,sans-Serif" font-size="14.00" fill="#000000">class = 0</text>
</g>
<!-- 25&#45;&gt;29 -->
<g id="edge29" class="edge">
<title>25-&gt;29</title>
<path fill="none" stroke="#000000" d="M2168.9848,-239.1699C2206.8478,-228.4 2247.3081,-216.8913 2285.5799,-206.0051"/>
<polygon fill="#000000" stroke="#000000" points="2286.599,-209.3541 2295.2599,-203.2516 2284.6839,-202.6212 2286.599,-209.3541"/>
</g>
<!-- 27 -->
<g id="node28" class="node">
<title>27</title>
<path fill="#f4caac" stroke="#000000" d="M1986.2632,-75.3003C1986.2632,-75.3003 1898.0572,-75.3003 1898.0572,-75.3003 1892.0572,-75.3003 1886.0572,-69.3003 1886.0572,-63.3003 1886.0572,-63.3003 1886.0572,-11.8997 1886.0572,-11.8997 1886.0572,-5.8997 1892.0572,.1003 1898.0572,.1003 1898.0572,.1003 1986.2632,.1003 1986.2632,.1003 1992.2632,.1003 1998.2632,-5.8997 1998.2632,-11.8997 1998.2632,-11.8997 1998.2632,-63.3003 1998.2632,-63.3003 1998.2632,-69.3003 1992.2632,-75.3003 1986.2632,-75.3003"/>
<text text-anchor="start" x="1905.7826" y="-58.6" font-family="Helvetica,sans-Serif" font-size="14.00" fill="#000000">gini = 0.465</text>
<text text-anchor="start" x="1896.4509" y="-41.8" font-family="Helvetica,sans-Serif" font-size="14.00" fill="#000000">samples = 139</text>
<text text-anchor="start" x="1894.1087" y="-25" font-family="Helvetica,sans-Serif" font-size="14.00" fill="#000000">value = [88, 51]</text>
<text text-anchor="start" x="1914.3464" y="-8.2" font-family="Helvetica,sans-Serif" font-size="14.00" fill="#000000">class = 0</text>
</g>
<!-- 26&#45;&gt;27 -->
<g id="edge27" class="edge">
<title>26-&gt;27</title>
<path fill="none" stroke="#000000" d="M1982.0295,-110.9595C1977.2569,-102.178 1972.2605,-92.9846 1967.4821,-84.1922"/>
<polygon fill="#000000" stroke="#000000" points="1970.4502,-82.3238 1962.5998,-75.2088 1964.2998,-85.6664 1970.4502,-82.3238"/>
</g>
<!-- 28 -->
<g id="node29" class="node">
<title>28</title>
<path fill="#eeae7f" stroke="#000000" d="M2116.2632,-75.3003C2116.2632,-75.3003 2028.0572,-75.3003 2028.0572,-75.3003 2022.0572,-75.3003 2016.0572,-69.3003 2016.0572,-63.3003 2016.0572,-63.3003 2016.0572,-11.8997 2016.0572,-11.8997 2016.0572,-5.8997 2022.0572,.1003 2028.0572,.1003 2028.0572,.1003 2116.2632,.1003 2116.2632,.1003 2122.2632,.1003 2128.2632,-5.8997 2128.2632,-11.8997 2128.2632,-11.8997 2128.2632,-63.3003 2128.2632,-63.3003 2128.2632,-69.3003 2122.2632,-75.3003 2116.2632,-75.3003"/>
<text text-anchor="start" x="2035.7826" y="-58.6" font-family="Helvetica,sans-Serif" font-size="14.00" fill="#000000">gini = 0.387</text>
<text text-anchor="start" x="2030.3422" y="-41.8" font-family="Helvetica,sans-Serif" font-size="14.00" fill="#000000">samples = 80</text>
<text text-anchor="start" x="2024.1087" y="-25" font-family="Helvetica,sans-Serif" font-size="14.00" fill="#000000">value = [59, 21]</text>
<text text-anchor="start" x="2044.3464" y="-8.2" font-family="Helvetica,sans-Serif" font-size="14.00" fill="#000000">class = 0</text>
</g>
<!-- 26&#45;&gt;28 -->
<g id="edge28" class="edge">
<title>26-&gt;28</title>
<path fill="none" stroke="#000000" d="M2032.2909,-110.9595C2037.0635,-102.178 2042.0599,-92.9846 2046.8383,-84.1922"/>
<polygon fill="#000000" stroke="#000000" points="2050.0206,-85.6664 2051.7206,-75.2088 2043.8702,-82.3238 2050.0206,-85.6664"/>
</g>
<!-- 30 -->
<g id="node31" class="node">
<title>30</title>
<path fill="#f3c3a0" stroke="#000000" d="M2424.2632,-75.3003C2424.2632,-75.3003 2336.0572,-75.3003 2336.0572,-75.3003 2330.0572,-75.3003 2324.0572,-69.3003 2324.0572,-63.3003 2324.0572,-63.3003 2324.0572,-11.8997 2324.0572,-11.8997 2324.0572,-5.8997 2330.0572,.1003 2336.0572,.1003 2336.0572,.1003 2424.2632,.1003 2424.2632,.1003 2430.2632,.1003 2436.2632,-5.8997 2436.2632,-11.8997 2436.2632,-11.8997 2436.2632,-63.3003 2436.2632,-63.3003 2436.2632,-69.3003 2430.2632,-75.3003 2424.2632,-75.3003"/>
<text text-anchor="start" x="2347.6739" y="-58.6" font-family="Helvetica,sans-Serif" font-size="14.00" fill="#000000">gini = 0.45</text>
<text text-anchor="start" x="2334.4509" y="-41.8" font-family="Helvetica,sans-Serif" font-size="14.00" fill="#000000">samples = 143</text>
<text text-anchor="start" x="2332.1087" y="-25" font-family="Helvetica,sans-Serif" font-size="14.00" fill="#000000">value = [94, 49]</text>
<text text-anchor="start" x="2352.3464" y="-8.2" font-family="Helvetica,sans-Serif" font-size="14.00" fill="#000000">class = 0</text>
</g>
<!-- 29&#45;&gt;30 -->
<g id="edge30" class="edge">
<title>29-&gt;30</title>
<path fill="none" stroke="#000000" d="M2427.39,-110.9595C2421.6173,-101.9931 2415.5682,-92.5973 2409.7997,-83.6374"/>
<polygon fill="#000000" stroke="#000000" points="2412.7294,-81.7223 2404.3732,-75.2088 2406.8437,-85.5116 2412.7294,-81.7223"/>
</g>
<!-- 31 -->
<g id="node32" class="node">
<title>31</title>
<path fill="#f9e0cf" stroke="#000000" d="M2554.2632,-75.3003C2554.2632,-75.3003 2466.0572,-75.3003 2466.0572,-75.3003 2460.0572,-75.3003 2454.0572,-69.3003 2454.0572,-63.3003 2454.0572,-63.3003 2454.0572,-11.8997 2454.0572,-11.8997 2454.0572,-5.8997 2460.0572,.1003 2466.0572,.1003 2466.0572,.1003 2554.2632,.1003 2554.2632,.1003 2560.2632,.1003 2566.2632,-5.8997 2566.2632,-11.8997 2566.2632,-11.8997 2566.2632,-63.3003 2566.2632,-63.3003 2566.2632,-69.3003 2560.2632,-75.3003 2554.2632,-75.3003"/>
<text text-anchor="start" x="2477.6739" y="-58.6" font-family="Helvetica,sans-Serif" font-size="14.00" fill="#000000">gini = 0.49</text>
<text text-anchor="start" x="2468.3422" y="-41.8" font-family="Helvetica,sans-Serif" font-size="14.00" fill="#000000">samples = 72</text>
<text text-anchor="start" x="2462.1087" y="-25" font-family="Helvetica,sans-Serif" font-size="14.00" fill="#000000">value = [41, 31]</text>
<text text-anchor="start" x="2482.3464" y="-8.2" font-family="Helvetica,sans-Serif" font-size="14.00" fill="#000000">class = 0</text>
</g>
<!-- 29&#45;&gt;31 -->
<g id="edge31" class="edge">
<title>29-&gt;31</title>
<path fill="none" stroke="#000000" d="M2477.6514,-110.9595C2481.5019,-102.2704 2485.5311,-93.1781 2489.39,-84.47"/>
<polygon fill="#000000" stroke="#000000" points="2492.6425,-85.7694 2493.4941,-75.2088 2486.2427,-82.9333 2492.6425,-85.7694"/>
</g>
<!-- 33 -->
<g id="node34" class="node">
<title>33</title>
<path fill="#f3c7a6" stroke="#000000" d="M3403.1119,-459.2C3403.1119,-459.2 3093.2085,-459.2 3093.2085,-459.2 3087.2085,-459.2 3081.2085,-453.2 3081.2085,-447.2 3081.2085,-447.2 3081.2085,-379.2 3081.2085,-379.2 3081.2085,-373.2 3087.2085,-367.2 3093.2085,-367.2 3093.2085,-367.2 3403.1119,-367.2 3403.1119,-367.2 3409.1119,-367.2 3415.1119,-373.2 3415.1119,-379.2 3415.1119,-379.2 3415.1119,-447.2 3415.1119,-447.2 3415.1119,-453.2 3409.1119,-459.2 3403.1119,-459.2"/>
<text text-anchor="start" x="3089.4345" y="-442.6" font-family="Helvetica,sans-Serif" font-size="14.00" fill="#000000">Total hours of study before online education? ≤ 4.5</text>
<text text-anchor="start" x="3211.7826" y="-425.8" font-family="Helvetica,sans-Serif" font-size="14.00" fill="#000000">gini = 0.458</text>
<text text-anchor="start" x="3198.5596" y="-409" font-family="Helvetica,sans-Serif" font-size="14.00" fill="#000000">samples = 2238</text>
<text text-anchor="start" x="3188.4348" y="-392.2" font-family="Helvetica,sans-Serif" font-size="14.00" fill="#000000">value = [1442, 796]</text>
<text text-anchor="start" x="3220.3464" y="-375.4" font-family="Helvetica,sans-Serif" font-size="14.00" fill="#000000">class = 0</text>
</g>
<!-- 32&#45;&gt;33 -->
<g id="edge33" class="edge">
<title>32-&gt;33</title>
<path fill="none" stroke="#000000" d="M3248.1602,-494.9891C3248.1602,-486.7417 3248.1602,-478.0661 3248.1602,-469.5724"/>
<polygon fill="#000000" stroke="#000000" points="3251.6603,-469.3431 3248.1602,-459.3431 3244.6603,-469.3431 3251.6603,-469.3431"/>
</g>
<!-- 48 -->
<g id="node49" class="node">
<title>48</title>
<path fill="#f7dac5" stroke="#000000" d="M4264.1119,-459.2C4264.1119,-459.2 3954.2085,-459.2 3954.2085,-459.2 3948.2085,-459.2 3942.2085,-453.2 3942.2085,-447.2 3942.2085,-447.2 3942.2085,-379.2 3942.2085,-379.2 3942.2085,-373.2 3948.2085,-367.2 3954.2085,-367.2 3954.2085,-367.2 4264.1119,-367.2 4264.1119,-367.2 4270.1119,-367.2 4276.1119,-373.2 4276.1119,-379.2 4276.1119,-379.2 4276.1119,-447.2 4276.1119,-447.2 4276.1119,-453.2 4270.1119,-459.2 4264.1119,-459.2"/>
<text text-anchor="start" x="3950.4345" y="-442.6" font-family="Helvetica,sans-Serif" font-size="14.00" fill="#000000">Total hours of study before online education? ≤ 3.5</text>
<text text-anchor="start" x="4072.7826" y="-425.8" font-family="Helvetica,sans-Serif" font-size="14.00" fill="#000000">gini = 0.485</text>
<text text-anchor="start" x="4063.4509" y="-409" font-family="Helvetica,sans-Serif" font-size="14.00" fill="#000000">samples = 244</text>
<text text-anchor="start" x="4053.3261" y="-392.2" font-family="Helvetica,sans-Serif" font-size="14.00" fill="#000000">value = [143, 101]</text>
<text text-anchor="start" x="4081.3464" y="-375.4" font-family="Helvetica,sans-Serif" font-size="14.00" fill="#000000">class = 0</text>
</g>
<!-- 32&#45;&gt;48 -->
<g id="edge48" class="edge">
<title>32-&gt;48</title>
<path fill="none" stroke="#000000" d="M3316.0809,-531.1026C3447.7425,-511.5292 3741.4765,-467.8615 3932.1534,-439.5146"/>
<polygon fill="#000000" stroke="#000000" points="3932.9114,-442.9405 3942.288,-438.0079 3931.882,-436.0166 3932.9114,-442.9405"/>
</g>
<!-- 34 -->
<g id="node35" class="node">
<title>34</title>
<path fill="#f4ccaf" stroke="#000000" d="M3276.3789,-331.2C3276.3789,-331.2 2867.9415,-331.2 2867.9415,-331.2 2861.9415,-331.2 2855.9415,-325.2 2855.9415,-319.2 2855.9415,-319.2 2855.9415,-251.2 2855.9415,-251.2 2855.9415,-245.2 2861.9415,-239.2 2867.9415,-239.2 2867.9415,-239.2 3276.3789,-239.2 3276.3789,-239.2 3282.3789,-239.2 3288.3789,-245.2 3288.3789,-251.2 3288.3789,-251.2 3288.3789,-319.2 3288.3789,-319.2 3288.3789,-325.2 3282.3789,-331.2 3276.3789,-331.2"/>
<text text-anchor="start" x="2864.0509" y="-314.6" font-family="Helvetica,sans-Serif" font-size="14.00" fill="#000000">Knowledge increased after online education (comparatively)? ≤ 0.5</text>
<text text-anchor="start" x="3035.7826" y="-297.8" font-family="Helvetica,sans-Serif" font-size="14.00" fill="#000000">gini = 0.468</text>
<text text-anchor="start" x="3022.5596" y="-281" font-family="Helvetica,sans-Serif" font-size="14.00" fill="#000000">samples = 1159</text>
<text text-anchor="start" x="3016.3261" y="-264.2" font-family="Helvetica,sans-Serif" font-size="14.00" fill="#000000">value = [727, 432]</text>
<text text-anchor="start" x="3044.3464" y="-247.4" font-family="Helvetica,sans-Serif" font-size="14.00" fill="#000000">class = 0</text>
</g>
<!-- 33&#45;&gt;34 -->
<g id="edge34" class="edge">
<title>33-&gt;34</title>
<path fill="none" stroke="#000000" d="M3184.6202,-366.9891C3171.4107,-357.3822 3157.4026,-347.1944 3143.9211,-337.3898"/>
<polygon fill="#000000" stroke="#000000" points="3145.753,-334.3943 3135.607,-331.3431 3141.6357,-340.0554 3145.753,-334.3943"/>
</g>
<!-- 41 -->
<g id="node42" class="node">
<title>41</title>
<path fill="#f2c19e" stroke="#000000" d="M3528.0198,-331.2C3528.0198,-331.2 3318.3006,-331.2 3318.3006,-331.2 3312.3006,-331.2 3306.3006,-325.2 3306.3006,-319.2 3306.3006,-319.2 3306.3006,-251.2 3306.3006,-251.2 3306.3006,-245.2 3312.3006,-239.2 3318.3006,-239.2 3318.3006,-239.2 3528.0198,-239.2 3528.0198,-239.2 3534.0198,-239.2 3540.0198,-245.2 3540.0198,-251.2 3540.0198,-251.2 3540.0198,-319.2 3540.0198,-319.2 3540.0198,-325.2 3534.0198,-331.2 3528.0198,-331.2"/>
<text text-anchor="start" x="3314.2304" y="-314.6" font-family="Helvetica,sans-Serif" font-size="14.00" fill="#000000">Broadband / Mobile Internet? ≤ 0.5</text>
<text text-anchor="start" x="3386.7826" y="-297.8" font-family="Helvetica,sans-Serif" font-size="14.00" fill="#000000">gini = 0.447</text>
<text text-anchor="start" x="3373.5596" y="-281" font-family="Helvetica,sans-Serif" font-size="14.00" fill="#000000">samples = 1079</text>
<text text-anchor="start" x="3367.3261" y="-264.2" font-family="Helvetica,sans-Serif" font-size="14.00" fill="#000000">value = [715, 364]</text>
<text text-anchor="start" x="3395.3464" y="-247.4" font-family="Helvetica,sans-Serif" font-size="14.00" fill="#000000">class = 0</text>
</g>
<!-- 33&#45;&gt;41 -->
<g id="edge41" class="edge">
<title>33-&gt;41</title>
<path fill="none" stroke="#000000" d="M3311.3392,-366.9891C3324.4736,-357.3822 3338.4022,-347.1944 3351.807,-337.3898"/>
<polygon fill="#000000" stroke="#000000" points="3354.0688,-340.0718 3360.0739,-331.3431 3349.9362,-334.4218 3354.0688,-340.0718"/>
</g>
<!-- 35 -->
<g id="node36" class="node">
<title>35</title>
<path fill="#f6d4bb" stroke="#000000" d="M2962.5128,-203.2C2962.5128,-203.2 2703.8076,-203.2 2703.8076,-203.2 2697.8076,-203.2 2691.8076,-197.2 2691.8076,-191.2 2691.8076,-191.2 2691.8076,-123.2 2691.8076,-123.2 2691.8076,-117.2 2697.8076,-111.2 2703.8076,-111.2 2703.8076,-111.2 2962.5128,-111.2 2962.5128,-111.2 2968.5128,-111.2 2974.5128,-117.2 2974.5128,-123.2 2974.5128,-123.2 2974.5128,-191.2 2974.5128,-191.2 2974.5128,-197.2 2968.5128,-203.2 2962.5128,-203.2"/>
<text text-anchor="start" x="2699.7339" y="-186.6" font-family="Helvetica,sans-Serif" font-size="14.00" fill="#000000">Preferred device for an online course ≤ 0.5</text>
<text text-anchor="start" x="2796.7826" y="-169.8" font-family="Helvetica,sans-Serif" font-size="14.00" fill="#000000">gini = 0.479</text>
<text text-anchor="start" x="2787.4509" y="-153" font-family="Helvetica,sans-Serif" font-size="14.00" fill="#000000">samples = 739</text>
<text text-anchor="start" x="2777.3261" y="-136.2" font-family="Helvetica,sans-Serif" font-size="14.00" fill="#000000">value = [446, 293]</text>
<text text-anchor="start" x="2805.3464" y="-119.4" font-family="Helvetica,sans-Serif" font-size="14.00" fill="#000000">class = 0</text>
</g>
<!-- 34&#45;&gt;35 -->
<g id="edge35" class="edge">
<title>34-&gt;35</title>
<path fill="none" stroke="#000000" d="M2986.2134,-239.1699C2967.3821,-229.0845 2947.3411,-218.3513 2928.1777,-208.088"/>
<polygon fill="#000000" stroke="#000000" points="2929.615,-204.8875 2919.1472,-203.2516 2926.3102,-211.0583 2929.615,-204.8875"/>
</g>
<!-- 38 -->
<g id="node39" class="node">
<title>38</title>
<path fill="#f2bf9b" stroke="#000000" d="M3238.0956,-203.2C3238.0956,-203.2 3004.2248,-203.2 3004.2248,-203.2 2998.2248,-203.2 2992.2248,-197.2 2992.2248,-191.2 2992.2248,-191.2 2992.2248,-123.2 2992.2248,-123.2 2992.2248,-117.2 2998.2248,-111.2 3004.2248,-111.2 3004.2248,-111.2 3238.0956,-111.2 3238.0956,-111.2 3244.0956,-111.2 3250.0956,-117.2 3250.0956,-123.2 3250.0956,-123.2 3250.0956,-191.2 3250.0956,-191.2 3250.0956,-197.2 3244.0956,-203.2 3238.0956,-203.2"/>
<text text-anchor="start" x="3000.1925" y="-186.6" font-family="Helvetica,sans-Serif" font-size="14.00" fill="#000000">Current location (During Study) ? ≤ 0.5</text>
<text text-anchor="start" x="3084.7826" y="-169.8" font-family="Helvetica,sans-Serif" font-size="14.00" fill="#000000">gini = 0.443</text>
<text text-anchor="start" x="3075.4509" y="-153" font-family="Helvetica,sans-Serif" font-size="14.00" fill="#000000">samples = 420</text>
<text text-anchor="start" x="3065.3261" y="-136.2" font-family="Helvetica,sans-Serif" font-size="14.00" fill="#000000">value = [281, 139]</text>
<text text-anchor="start" x="3093.3464" y="-119.4" font-family="Helvetica,sans-Serif" font-size="14.00" fill="#000000">class = 0</text>
</g>
<!-- 34&#45;&gt;38 -->
<g id="edge38" class="edge">
<title>34-&gt;38</title>
<path fill="none" stroke="#000000" d="M3089.8503,-238.9891C3093.1116,-230.4698 3096.5478,-221.4937 3099.9015,-212.733"/>
<polygon fill="#000000" stroke="#000000" points="3103.1895,-213.9335 3103.496,-203.3431 3096.6522,-211.4309 3103.1895,-213.9335"/>
</g>
<!-- 36 -->
<g id="node37" class="node">
<title>36</title>
<path fill="#f4c9aa" stroke="#000000" d="M2749.8288,-75.3003C2749.8288,-75.3003 2646.4916,-75.3003 2646.4916,-75.3003 2640.4916,-75.3003 2634.4916,-69.3003 2634.4916,-63.3003 2634.4916,-63.3003 2634.4916,-11.8997 2634.4916,-11.8997 2634.4916,-5.8997 2640.4916,.1003 2646.4916,.1003 2646.4916,.1003 2749.8288,.1003 2749.8288,.1003 2755.8288,.1003 2761.8288,-5.8997 2761.8288,-11.8997 2761.8288,-11.8997 2761.8288,-63.3003 2761.8288,-63.3003 2761.8288,-69.3003 2755.8288,-75.3003 2749.8288,-75.3003"/>
<text text-anchor="start" x="2661.7826" y="-58.6" font-family="Helvetica,sans-Serif" font-size="14.00" fill="#000000">gini = 0.463</text>
<text text-anchor="start" x="2652.4509" y="-41.8" font-family="Helvetica,sans-Serif" font-size="14.00" fill="#000000">samples = 457</text>
<text text-anchor="start" x="2642.3261" y="-25" font-family="Helvetica,sans-Serif" font-size="14.00" fill="#000000">value = [291, 166]</text>
<text text-anchor="start" x="2670.3464" y="-8.2" font-family="Helvetica,sans-Serif" font-size="14.00" fill="#000000">class = 0</text>
</g>
<!-- 35&#45;&gt;36 -->
<g id="edge36" class="edge">
<title>35-&gt;36</title>
<path fill="none" stroke="#000000" d="M2780.9657,-110.9595C2770.2187,-101.4385 2758.9253,-91.4333 2748.2547,-81.98"/>
<polygon fill="#000000" stroke="#000000" points="2750.4177,-79.2203 2740.6116,-75.2088 2745.7758,-84.4599 2750.4177,-79.2203"/>
</g>
<!-- 37 -->
<g id="node38" class="node">
<title>37</title>
<path fill="#fae8db" stroke="#000000" d="M2895.8288,-75.3003C2895.8288,-75.3003 2792.4916,-75.3003 2792.4916,-75.3003 2786.4916,-75.3003 2780.4916,-69.3003 2780.4916,-63.3003 2780.4916,-63.3003 2780.4916,-11.8997 2780.4916,-11.8997 2780.4916,-5.8997 2786.4916,.1003 2792.4916,.1003 2792.4916,.1003 2895.8288,.1003 2895.8288,.1003 2901.8288,.1003 2907.8288,-5.8997 2907.8288,-11.8997 2907.8288,-11.8997 2907.8288,-63.3003 2907.8288,-63.3003 2907.8288,-69.3003 2901.8288,-75.3003 2895.8288,-75.3003"/>
<text text-anchor="start" x="2807.7826" y="-58.6" font-family="Helvetica,sans-Serif" font-size="14.00" fill="#000000">gini = 0.495</text>
<text text-anchor="start" x="2798.4509" y="-41.8" font-family="Helvetica,sans-Serif" font-size="14.00" fill="#000000">samples = 282</text>
<text text-anchor="start" x="2788.3261" y="-25" font-family="Helvetica,sans-Serif" font-size="14.00" fill="#000000">value = [155, 127]</text>
<text text-anchor="start" x="2816.3464" y="-8.2" font-family="Helvetica,sans-Serif" font-size="14.00" fill="#000000">class = 0</text>
</g>
<!-- 35&#45;&gt;37 -->
<g id="edge37" class="edge">
<title>35-&gt;37</title>
<path fill="none" stroke="#000000" d="M2837.4131,-110.9595C2838.1867,-102.5477 2838.9952,-93.7581 2839.7726,-85.3049"/>
<polygon fill="#000000" stroke="#000000" points="2843.2705,-85.4874 2840.7012,-75.2088 2836.2999,-84.8462 2843.2705,-85.4874"/>
</g>
<!-- 39 -->
<g id="node40" class="node">
<title>39</title>
<path fill="#efb387" stroke="#000000" d="M3038.0459,-75.3003C3038.0459,-75.3003 2942.2745,-75.3003 2942.2745,-75.3003 2936.2745,-75.3003 2930.2745,-69.3003 2930.2745,-63.3003 2930.2745,-63.3003 2930.2745,-11.8997 2930.2745,-11.8997 2930.2745,-5.8997 2936.2745,.1003 2942.2745,.1003 2942.2745,.1003 3038.0459,.1003 3038.0459,.1003 3044.0459,.1003 3050.0459,-5.8997 3050.0459,-11.8997 3050.0459,-11.8997 3050.0459,-63.3003 3050.0459,-63.3003 3050.0459,-69.3003 3044.0459,-75.3003 3038.0459,-75.3003"/>
<text text-anchor="start" x="2953.7826" y="-58.6" font-family="Helvetica,sans-Serif" font-size="14.00" fill="#000000">gini = 0.405</text>
<text text-anchor="start" x="2944.4509" y="-41.8" font-family="Helvetica,sans-Serif" font-size="14.00" fill="#000000">samples = 202</text>
<text text-anchor="start" x="2938.2174" y="-25" font-family="Helvetica,sans-Serif" font-size="14.00" fill="#000000">value = [145, 57]</text>
<text text-anchor="start" x="2962.3464" y="-8.2" font-family="Helvetica,sans-Serif" font-size="14.00" fill="#000000">class = 0</text>
</g>
<!-- 38&#45;&gt;39 -->
<g id="edge39" class="edge">
<title>38-&gt;39</title>
<path fill="none" stroke="#000000" d="M3070.5122,-110.9595C3060.0836,-101.4385 3049.1248,-91.4333 3038.7704,-81.98"/>
<polygon fill="#000000" stroke="#000000" points="3041.0988,-79.3665 3031.3538,-75.2088 3036.3791,-84.5361 3041.0988,-79.3665"/>
</g>
<!-- 40 -->
<g id="node41" class="node">
<title>40</title>
<path fill="#f5cdb0" stroke="#000000" d="M3176.0459,-75.3003C3176.0459,-75.3003 3080.2745,-75.3003 3080.2745,-75.3003 3074.2745,-75.3003 3068.2745,-69.3003 3068.2745,-63.3003 3068.2745,-63.3003 3068.2745,-11.8997 3068.2745,-11.8997 3068.2745,-5.8997 3074.2745,.1003 3080.2745,.1003 3080.2745,.1003 3176.0459,.1003 3176.0459,.1003 3182.0459,.1003 3188.0459,-5.8997 3188.0459,-11.8997 3188.0459,-11.8997 3188.0459,-63.3003 3188.0459,-63.3003 3188.0459,-69.3003 3182.0459,-75.3003 3176.0459,-75.3003"/>
<text text-anchor="start" x="3091.7826" y="-58.6" font-family="Helvetica,sans-Serif" font-size="14.00" fill="#000000">gini = 0.469</text>
<text text-anchor="start" x="3082.4509" y="-41.8" font-family="Helvetica,sans-Serif" font-size="14.00" fill="#000000">samples = 218</text>
<text text-anchor="start" x="3076.2174" y="-25" font-family="Helvetica,sans-Serif" font-size="14.00" fill="#000000">value = [136, 82]</text>
<text text-anchor="start" x="3100.3464" y="-8.2" font-family="Helvetica,sans-Serif" font-size="14.00" fill="#000000">class = 0</text>
</g>
<!-- 38&#45;&gt;40 -->
<g id="edge40" class="edge">
<title>38-&gt;40</title>
<path fill="none" stroke="#000000" d="M3123.8666,-110.9595C3124.3589,-102.5477 3124.8734,-93.7581 3125.3681,-85.3049"/>
<polygon fill="#000000" stroke="#000000" points="3128.8687,-85.3963 3125.959,-75.2088 3121.8806,-84.9872 3128.8687,-85.3963"/>
</g>
<!-- 42 -->
<g id="node43" class="node">
<title>42</title>
<path fill="#f1b992" stroke="#000000" d="M3465.905,-203.2C3465.905,-203.2 3280.4154,-203.2 3280.4154,-203.2 3274.4154,-203.2 3268.4154,-197.2 3268.4154,-191.2 3268.4154,-191.2 3268.4154,-123.2 3268.4154,-123.2 3268.4154,-117.2 3274.4154,-111.2 3280.4154,-111.2 3280.4154,-111.2 3465.905,-111.2 3465.905,-111.2 3471.905,-111.2 3477.905,-117.2 3477.905,-123.2 3477.905,-123.2 3477.905,-191.2 3477.905,-191.2 3477.905,-197.2 3471.905,-203.2 3465.905,-203.2"/>
<text text-anchor="start" x="3276.2879" y="-186.6" font-family="Helvetica,sans-Serif" font-size="14.00" fill="#000000">Education Institute Area? ≤ 0.5</text>
<text text-anchor="start" x="3336.7826" y="-169.8" font-family="Helvetica,sans-Serif" font-size="14.00" fill="#000000">gini = 0.427</text>
<text text-anchor="start" x="3327.4509" y="-153" font-family="Helvetica,sans-Serif" font-size="14.00" fill="#000000">samples = 569</text>
<text text-anchor="start" x="3317.3261" y="-136.2" font-family="Helvetica,sans-Serif" font-size="14.00" fill="#000000">value = [393, 176]</text>
<text text-anchor="start" x="3345.3464" y="-119.4" font-family="Helvetica,sans-Serif" font-size="14.00" fill="#000000">class = 0</text>
</g>
<!-- 41&#45;&gt;42 -->
<g id="edge42" class="edge">
<title>41-&gt;42</title>
<path fill="none" stroke="#000000" d="M3405.1091,-238.9891C3401.7812,-230.4698 3398.2749,-221.4937 3394.8528,-212.733"/>
<polygon fill="#000000" stroke="#000000" points="3398.0835,-211.3842 3391.1849,-203.3431 3391.5633,-213.9312 3398.0835,-211.3842"/>
</g>
<!-- 45 -->
<g id="node46" class="node">
<title>45</title>
<path fill="#f4cbad" stroke="#000000" d="M3890.1933,-203.2C3890.1933,-203.2 3508.1271,-203.2 3508.1271,-203.2 3502.1271,-203.2 3496.1271,-197.2 3496.1271,-191.2 3496.1271,-191.2 3496.1271,-123.2 3496.1271,-123.2 3496.1271,-117.2 3502.1271,-111.2 3508.1271,-111.2 3508.1271,-111.2 3890.1933,-111.2 3890.1933,-111.2 3896.1933,-111.2 3902.1933,-117.2 3902.1933,-123.2 3902.1933,-123.2 3902.1933,-191.2 3902.1933,-191.2 3902.1933,-197.2 3896.1933,-203.2 3890.1933,-203.2"/>
<text text-anchor="start" x="3503.8938" y="-186.6" font-family="Helvetica,sans-Serif" font-size="14.00" fill="#000000">Result increased after online education  (comparatively)? ≤ 0.5</text>
<text text-anchor="start" x="3662.7826" y="-169.8" font-family="Helvetica,sans-Serif" font-size="14.00" fill="#000000">gini = 0.465</text>
<text text-anchor="start" x="3653.4509" y="-153" font-family="Helvetica,sans-Serif" font-size="14.00" fill="#000000">samples = 510</text>
<text text-anchor="start" x="3643.3261" y="-136.2" font-family="Helvetica,sans-Serif" font-size="14.00" fill="#000000">value = [322, 188]</text>
<text text-anchor="start" x="3671.3464" y="-119.4" font-family="Helvetica,sans-Serif" font-size="14.00" fill="#000000">class = 0</text>
</g>
<!-- 41&#45;&gt;45 -->
<g id="edge45" class="edge">
<title>41-&gt;45</title>
<path fill="none" stroke="#000000" d="M3522.4126,-239.1699C3544.5528,-228.902 3568.141,-217.9625 3590.6335,-207.5312"/>
<polygon fill="#000000" stroke="#000000" points="3592.262,-210.6341 3599.8614,-203.2516 3589.3169,-204.2838 3592.262,-210.6341"/>
</g>
<!-- 43 -->
<g id="node44" class="node">
<title>43</title>
<path fill="#eda673" stroke="#000000" d="M3365.2632,-75.3003C3365.2632,-75.3003 3277.0572,-75.3003 3277.0572,-75.3003 3271.0572,-75.3003 3265.0572,-69.3003 3265.0572,-63.3003 3265.0572,-63.3003 3265.0572,-11.8997 3265.0572,-11.8997 3265.0572,-5.8997 3271.0572,.1003 3277.0572,.1003 3277.0572,.1003 3365.2632,.1003 3365.2632,.1003 3371.2632,.1003 3377.2632,-5.8997 3377.2632,-11.8997 3377.2632,-11.8997 3377.2632,-63.3003 3377.2632,-63.3003 3377.2632,-69.3003 3371.2632,-75.3003 3365.2632,-75.3003"/>
<text text-anchor="start" x="3284.7826" y="-58.6" font-family="Helvetica,sans-Serif" font-size="14.00" fill="#000000">gini = 0.352</text>
<text text-anchor="start" x="3275.4509" y="-41.8" font-family="Helvetica,sans-Serif" font-size="14.00" fill="#000000">samples = 123</text>
<text text-anchor="start" x="3273.1087" y="-25" font-family="Helvetica,sans-Serif" font-size="14.00" fill="#000000">value = [95, 28]</text>
<text text-anchor="start" x="3293.3464" y="-8.2" font-family="Helvetica,sans-Serif" font-size="14.00" fill="#000000">class = 0</text>
</g>
<!-- 42&#45;&gt;43 -->
<g id="edge43" class="edge">
<title>42-&gt;43</title>
<path fill="none" stroke="#000000" d="M3353.0556,-110.9595C3349.2778,-102.2704 3345.3246,-93.1781 3341.5385,-84.47"/>
<polygon fill="#000000" stroke="#000000" points="3344.7089,-82.984 3337.5119,-75.2088 3338.2894,-85.7751 3344.7089,-82.984"/>
</g>
<!-- 44 -->
<g id="node45" class="node">
<title>44</title>
<path fill="#f2c09b" stroke="#000000" d="M3510.8288,-75.3003C3510.8288,-75.3003 3407.4916,-75.3003 3407.4916,-75.3003 3401.4916,-75.3003 3395.4916,-69.3003 3395.4916,-63.3003 3395.4916,-63.3003 3395.4916,-11.8997 3395.4916,-11.8997 3395.4916,-5.8997 3401.4916,.1003 3407.4916,.1003 3407.4916,.1003 3510.8288,.1003 3510.8288,.1003 3516.8288,.1003 3522.8288,-5.8997 3522.8288,-11.8997 3522.8288,-11.8997 3522.8288,-63.3003 3522.8288,-63.3003 3522.8288,-69.3003 3516.8288,-75.3003 3510.8288,-75.3003"/>
<text text-anchor="start" x="3422.7826" y="-58.6" font-family="Helvetica,sans-Serif" font-size="14.00" fill="#000000">gini = 0.443</text>
<text text-anchor="start" x="3413.4509" y="-41.8" font-family="Helvetica,sans-Serif" font-size="14.00" fill="#000000">samples = 446</text>
<text text-anchor="start" x="3403.3261" y="-25" font-family="Helvetica,sans-Serif" font-size="14.00" fill="#000000">value = [298, 148]</text>
<text text-anchor="start" x="3431.3464" y="-8.2" font-family="Helvetica,sans-Serif" font-size="14.00" fill="#000000">class = 0</text>
</g>
<!-- 42&#45;&gt;44 -->
<g id="edge44" class="edge">
<title>42-&gt;44</title>
<path fill="none" stroke="#000000" d="M3406.41,-110.9595C3412.9239,-101.9007 3419.753,-92.4036 3426.2555,-83.3605"/>
<polygon fill="#000000" stroke="#000000" points="3429.1206,-85.3711 3432.1171,-75.2088 3423.4373,-81.2845 3429.1206,-85.3711"/>
</g>
<!-- 46 -->
<g id="node47" class="node">
<title>46</title>
<path fill="#f7dac5" stroke="#000000" d="M3656.2632,-75.3003C3656.2632,-75.3003 3568.0572,-75.3003 3568.0572,-75.3003 3562.0572,-75.3003 3556.0572,-69.3003 3556.0572,-63.3003 3556.0572,-63.3003 3556.0572,-11.8997 3556.0572,-11.8997 3556.0572,-5.8997 3562.0572,.1003 3568.0572,.1003 3568.0572,.1003 3656.2632,.1003 3656.2632,.1003 3662.2632,.1003 3668.2632,-5.8997 3668.2632,-11.8997 3668.2632,-11.8997 3668.2632,-63.3003 3668.2632,-63.3003 3668.2632,-69.3003 3662.2632,-75.3003 3656.2632,-75.3003"/>
<text text-anchor="start" x="3575.7826" y="-58.6" font-family="Helvetica,sans-Serif" font-size="14.00" fill="#000000">gini = 0.485</text>
<text text-anchor="start" x="3566.4509" y="-41.8" font-family="Helvetica,sans-Serif" font-size="14.00" fill="#000000">samples = 157</text>
<text text-anchor="start" x="3564.1087" y="-25" font-family="Helvetica,sans-Serif" font-size="14.00" fill="#000000">value = [92, 65]</text>
<text text-anchor="start" x="3584.3464" y="-8.2" font-family="Helvetica,sans-Serif" font-size="14.00" fill="#000000">class = 0</text>
</g>
<!-- 45&#45;&gt;46 -->
<g id="edge46" class="edge">
<title>45-&gt;46</title>
<path fill="none" stroke="#000000" d="M3665.5237,-110.9595C3658.9341,-101.9007 3652.0257,-92.4036 3645.4475,-83.3605"/>
<polygon fill="#000000" stroke="#000000" points="3648.2307,-81.2367 3639.5178,-75.2088 3642.57,-85.3545 3648.2307,-81.2367"/>
</g>
<!-- 47 -->
<g id="node48" class="node">
<title>47</title>
<path fill="#f3c4a3" stroke="#000000" d="M3801.8288,-75.3003C3801.8288,-75.3003 3698.4916,-75.3003 3698.4916,-75.3003 3692.4916,-75.3003 3686.4916,-69.3003 3686.4916,-63.3003 3686.4916,-63.3003 3686.4916,-11.8997 3686.4916,-11.8997 3686.4916,-5.8997 3692.4916,.1003 3698.4916,.1003 3698.4916,.1003 3801.8288,.1003 3801.8288,.1003 3807.8288,.1003 3813.8288,-5.8997 3813.8288,-11.8997 3813.8288,-11.8997 3813.8288,-63.3003 3813.8288,-63.3003 3813.8288,-69.3003 3807.8288,-75.3003 3801.8288,-75.3003"/>
<text text-anchor="start" x="3713.7826" y="-58.6" font-family="Helvetica,sans-Serif" font-size="14.00" fill="#000000">gini = 0.454</text>
<text text-anchor="start" x="3704.4509" y="-41.8" font-family="Helvetica,sans-Serif" font-size="14.00" fill="#000000">samples = 353</text>
<text text-anchor="start" x="3694.3261" y="-25" font-family="Helvetica,sans-Serif" font-size="14.00" fill="#000000">value = [230, 123]</text>
<text text-anchor="start" x="3722.3464" y="-8.2" font-family="Helvetica,sans-Serif" font-size="14.00" fill="#000000">class = 0</text>
</g>
<!-- 45&#45;&gt;47 -->
<g id="edge47" class="edge">
<title>45-&gt;47</title>
<path fill="none" stroke="#000000" d="M3718.8781,-110.9595C3722.5834,-102.2704 3726.4605,-93.1781 3730.1738,-84.47"/>
<polygon fill="#000000" stroke="#000000" points="3733.42,-85.7803 3734.123,-75.2088 3726.9809,-83.0345 3733.42,-85.7803"/>
</g>
<!-- 49 -->
<g id="node50" class="node">
<title>49</title>
<path fill="#efb287" stroke="#000000" d="M4201.905,-331.2C4201.905,-331.2 4016.4154,-331.2 4016.4154,-331.2 4010.4154,-331.2 4004.4154,-325.2 4004.4154,-319.2 4004.4154,-319.2 4004.4154,-251.2 4004.4154,-251.2 4004.4154,-245.2 4010.4154,-239.2 4016.4154,-239.2 4016.4154,-239.2 4201.905,-239.2 4201.905,-239.2 4207.905,-239.2 4213.905,-245.2 4213.905,-251.2 4213.905,-251.2 4213.905,-319.2 4213.905,-319.2 4213.905,-325.2 4207.905,-331.2 4201.905,-331.2"/>
<text text-anchor="start" x="4012.2879" y="-314.6" font-family="Helvetica,sans-Serif" font-size="14.00" fill="#000000">Education Institute Area? ≤ 0.5</text>
<text text-anchor="start" x="4072.7826" y="-297.8" font-family="Helvetica,sans-Serif" font-size="14.00" fill="#000000">gini = 0.405</text>
<text text-anchor="start" x="4067.3422" y="-281" font-family="Helvetica,sans-Serif" font-size="14.00" fill="#000000">samples = 39</text>
<text text-anchor="start" x="4061.1087" y="-264.2" font-family="Helvetica,sans-Serif" font-size="14.00" fill="#000000">value = [28, 11]</text>
<text text-anchor="start" x="4081.3464" y="-247.4" font-family="Helvetica,sans-Serif" font-size="14.00" fill="#000000">class = 0</text>
</g>
<!-- 48&#45;&gt;49 -->
<g id="edge49" class="edge">
<title>48-&gt;49</title>
<path fill="none" stroke="#000000" d="M4109.1602,-366.9891C4109.1602,-358.7417 4109.1602,-350.0661 4109.1602,-341.5724"/>
<polygon fill="#000000" stroke="#000000" points="4112.6603,-341.3431 4109.1602,-331.3431 4105.6603,-341.3431 4112.6603,-341.3431"/>
</g>
<!-- 54 -->
<g id="node55" class="node">
<title>54</title>
<path fill="#f9e4d4" stroke="#000000" d="M4762.905,-331.2C4762.905,-331.2 4577.4154,-331.2 4577.4154,-331.2 4571.4154,-331.2 4565.4154,-325.2 4565.4154,-319.2 4565.4154,-319.2 4565.4154,-251.2 4565.4154,-251.2 4565.4154,-245.2 4571.4154,-239.2 4577.4154,-239.2 4577.4154,-239.2 4762.905,-239.2 4762.905,-239.2 4768.905,-239.2 4774.905,-245.2 4774.905,-251.2 4774.905,-251.2 4774.905,-319.2 4774.905,-319.2 4774.905,-325.2 4768.905,-331.2 4762.905,-331.2"/>
<text text-anchor="start" x="4573.2879" y="-314.6" font-family="Helvetica,sans-Serif" font-size="14.00" fill="#000000">Education Institute Area? ≤ 0.5</text>
<text text-anchor="start" x="4633.7826" y="-297.8" font-family="Helvetica,sans-Serif" font-size="14.00" fill="#000000">gini = 0.493</text>
<text text-anchor="start" x="4624.4509" y="-281" font-family="Helvetica,sans-Serif" font-size="14.00" fill="#000000">samples = 205</text>
<text text-anchor="start" x="4618.2174" y="-264.2" font-family="Helvetica,sans-Serif" font-size="14.00" fill="#000000">value = [115, 90]</text>
<text text-anchor="start" x="4642.3464" y="-247.4" font-family="Helvetica,sans-Serif" font-size="14.00" fill="#000000">class = 0</text>
</g>
<!-- 48&#45;&gt;54 -->
<g id="edge54" class="edge">
<title>48-&gt;54</title>
<path fill="none" stroke="#000000" d="M4275.9598,-375.1423C4365.9381,-354.6125 4474.7058,-329.7957 4555.1772,-311.435"/>
<polygon fill="#000000" stroke="#000000" points="4556.3726,-314.7523 4565.3434,-309.1154 4554.8154,-307.9277 4556.3726,-314.7523"/>
</g>
<!-- 50 -->
<g id="node51" class="node">
<title>50</title>
<path fill="#e58139" stroke="#000000" d="M4012.4811,-194.9003C4012.4811,-194.9003 3931.8393,-194.9003 3931.8393,-194.9003 3925.8393,-194.9003 3919.8393,-188.9003 3919.8393,-182.9003 3919.8393,-182.9003 3919.8393,-131.4997 3919.8393,-131.4997 3919.8393,-125.4997 3925.8393,-119.4997 3931.8393,-119.4997 3931.8393,-119.4997 4012.4811,-119.4997 4012.4811,-119.4997 4018.4811,-119.4997 4024.4811,-125.4997 4024.4811,-131.4997 4024.4811,-131.4997 4024.4811,-182.9003 4024.4811,-182.9003 4024.4811,-188.9003 4018.4811,-194.9003 4012.4811,-194.9003"/>
<text text-anchor="start" x="3943.5652" y="-178.2" font-family="Helvetica,sans-Serif" font-size="14.00" fill="#000000">gini = 0.0</text>
<text text-anchor="start" x="3930.3422" y="-161.4" font-family="Helvetica,sans-Serif" font-size="14.00" fill="#000000">samples = 10</text>
<text text-anchor="start" x="3928" y="-144.6" font-family="Helvetica,sans-Serif" font-size="14.00" fill="#000000">value = [10, 0]</text>
<text text-anchor="start" x="3944.3464" y="-127.8" font-family="Helvetica,sans-Serif" font-size="14.00" fill="#000000">class = 0</text>
</g>
<!-- 49&#45;&gt;50 -->
<g id="edge50" class="edge">
<title>49-&gt;50</title>
<path fill="none" stroke="#000000" d="M4059.7001,-238.9891C4046.7579,-226.8971 4032.8308,-213.8849 4019.976,-201.8746"/>
<polygon fill="#000000" stroke="#000000" points="4022.2433,-199.2031 4012.5468,-194.9335 4017.4644,-204.318 4022.2433,-199.2031"/>
</g>
<!-- 51 -->
<g id="node52" class="node">
<title>51</title>
<path fill="#f5ceb2" stroke="#000000" d="M4436.1933,-203.2C4436.1933,-203.2 4054.1271,-203.2 4054.1271,-203.2 4048.1271,-203.2 4042.1271,-197.2 4042.1271,-191.2 4042.1271,-191.2 4042.1271,-123.2 4042.1271,-123.2 4042.1271,-117.2 4048.1271,-111.2 4054.1271,-111.2 4054.1271,-111.2 4436.1933,-111.2 4436.1933,-111.2 4442.1933,-111.2 4448.1933,-117.2 4448.1933,-123.2 4448.1933,-123.2 4448.1933,-191.2 4448.1933,-191.2 4448.1933,-197.2 4442.1933,-203.2 4436.1933,-203.2"/>
<text text-anchor="start" x="4049.8938" y="-186.6" font-family="Helvetica,sans-Serif" font-size="14.00" fill="#000000">Result increased after online education  (comparatively)? ≤ 0.5</text>
<text text-anchor="start" x="4208.7826" y="-169.8" font-family="Helvetica,sans-Serif" font-size="14.00" fill="#000000">gini = 0.471</text>
<text text-anchor="start" x="4203.3422" y="-153" font-family="Helvetica,sans-Serif" font-size="14.00" fill="#000000">samples = 29</text>
<text text-anchor="start" x="4197.1087" y="-136.2" font-family="Helvetica,sans-Serif" font-size="14.00" fill="#000000">value = [18, 11]</text>
<text text-anchor="start" x="4217.3464" y="-119.4" font-family="Helvetica,sans-Serif" font-size="14.00" fill="#000000">class = 0</text>
</g>
<!-- 49&#45;&gt;51 -->
<g id="edge51" class="edge">
<title>49-&gt;51</title>
<path fill="none" stroke="#000000" d="M4158.2593,-238.9891C4168.1777,-229.6541 4178.6789,-219.7706 4188.8231,-210.2231"/>
<polygon fill="#000000" stroke="#000000" points="4191.2499,-212.7455 4196.1331,-203.3431 4186.4523,-207.6481 4191.2499,-212.7455"/>
</g>
<!-- 52 -->
<g id="node53" class="node">
<title>52</title>
<path fill="#e88f4f" stroke="#000000" d="M4222.7969,-75.3003C4222.7969,-75.3003 4147.5235,-75.3003 4147.5235,-75.3003 4141.5235,-75.3003 4135.5235,-69.3003 4135.5235,-63.3003 4135.5235,-63.3003 4135.5235,-11.8997 4135.5235,-11.8997 4135.5235,-5.8997 4141.5235,.1003 4147.5235,.1003 4147.5235,.1003 4222.7969,.1003 4222.7969,.1003 4228.7969,.1003 4234.7969,-5.8997 4234.7969,-11.8997 4234.7969,-11.8997 4234.7969,-63.3003 4234.7969,-63.3003 4234.7969,-69.3003 4228.7969,-75.3003 4222.7969,-75.3003"/>
<text text-anchor="start" x="4152.6739" y="-58.6" font-family="Helvetica,sans-Serif" font-size="14.00" fill="#000000">gini = 0.18</text>
<text text-anchor="start" x="4143.3422" y="-41.8" font-family="Helvetica,sans-Serif" font-size="14.00" fill="#000000">samples = 10</text>
<text text-anchor="start" x="4144.8913" y="-25" font-family="Helvetica,sans-Serif" font-size="14.00" fill="#000000">value = [9, 1]</text>
<text text-anchor="start" x="4157.3464" y="-8.2" font-family="Helvetica,sans-Serif" font-size="14.00" fill="#000000">class = 0</text>
</g>
<!-- 51&#45;&gt;52 -->
<g id="edge52" class="edge">
<title>51-&gt;52</title>
<path fill="none" stroke="#000000" d="M4221.9626,-110.9595C4217.5572,-102.178 4212.9451,-92.9846 4208.5342,-84.1922"/>
<polygon fill="#000000" stroke="#000000" points="4211.6401,-82.5777 4204.0275,-75.2088 4205.3832,-85.7166 4211.6401,-82.5777"/>
</g>
<!-- 53 -->
<g id="node54" class="node">
<title>53</title>
<path fill="#ebf5fc" stroke="#000000" d="M4345.4811,-75.3003C4345.4811,-75.3003 4264.8393,-75.3003 4264.8393,-75.3003 4258.8393,-75.3003 4252.8393,-69.3003 4252.8393,-63.3003 4252.8393,-63.3003 4252.8393,-11.8997 4252.8393,-11.8997 4252.8393,-5.8997 4258.8393,.1003 4264.8393,.1003 4264.8393,.1003 4345.4811,.1003 4345.4811,.1003 4351.4811,.1003 4357.4811,-5.8997 4357.4811,-11.8997 4357.4811,-11.8997 4357.4811,-63.3003 4357.4811,-63.3003 4357.4811,-69.3003 4351.4811,-75.3003 4345.4811,-75.3003"/>
<text text-anchor="start" x="4268.7826" y="-58.6" font-family="Helvetica,sans-Serif" font-size="14.00" fill="#000000">gini = 0.499</text>
<text text-anchor="start" x="4263.3422" y="-41.8" font-family="Helvetica,sans-Serif" font-size="14.00" fill="#000000">samples = 19</text>
<text text-anchor="start" x="4261" y="-25" font-family="Helvetica,sans-Serif" font-size="14.00" fill="#000000">value = [9, 10]</text>
<text text-anchor="start" x="4277.3464" y="-8.2" font-family="Helvetica,sans-Serif" font-size="14.00" fill="#000000">class = 1</text>
</g>
<!-- 51&#45;&gt;53 -->
<g id="edge53" class="edge">
<title>51-&gt;53</title>
<path fill="none" stroke="#000000" d="M4268.3578,-110.9595C4272.7632,-102.178 4277.3753,-92.9846 4281.7862,-84.1922"/>
<polygon fill="#000000" stroke="#000000" points="4284.9372,-85.7166 4286.2929,-75.2088 4278.6803,-82.5777 4284.9372,-85.7166"/>
</g>
<!-- 55 -->
<g id="node56" class="node">
<title>55</title>
<path fill="#baddf6" stroke="#000000" d="M4861.1933,-203.2C4861.1933,-203.2 4479.1271,-203.2 4479.1271,-203.2 4473.1271,-203.2 4467.1271,-197.2 4467.1271,-191.2 4467.1271,-191.2 4467.1271,-123.2 4467.1271,-123.2 4467.1271,-117.2 4473.1271,-111.2 4479.1271,-111.2 4479.1271,-111.2 4861.1933,-111.2 4861.1933,-111.2 4867.1933,-111.2 4873.1933,-117.2 4873.1933,-123.2 4873.1933,-123.2 4873.1933,-191.2 4873.1933,-191.2 4873.1933,-197.2 4867.1933,-203.2 4861.1933,-203.2"/>
<text text-anchor="start" x="4474.8938" y="-186.6" font-family="Helvetica,sans-Serif" font-size="14.00" fill="#000000">Result increased after online education  (comparatively)? ≤ 0.5</text>
<text text-anchor="start" x="4633.7826" y="-169.8" font-family="Helvetica,sans-Serif" font-size="14.00" fill="#000000">gini = 0.478</text>
<text text-anchor="start" x="4628.3422" y="-153" font-family="Helvetica,sans-Serif" font-size="14.00" fill="#000000">samples = 33</text>
<text text-anchor="start" x="4622.1087" y="-136.2" font-family="Helvetica,sans-Serif" font-size="14.00" fill="#000000">value = [13, 20]</text>
<text text-anchor="start" x="4642.3464" y="-119.4" font-family="Helvetica,sans-Serif" font-size="14.00" fill="#000000">class = 1</text>
</g>
<!-- 54&#45;&gt;55 -->
<g id="edge55" class="edge">
<title>54-&gt;55</title>
<path fill="none" stroke="#000000" d="M4670.1602,-238.9891C4670.1602,-230.7417 4670.1602,-222.0661 4670.1602,-213.5724"/>
<polygon fill="#000000" stroke="#000000" points="4673.6603,-213.3431 4670.1602,-203.3431 4666.6603,-213.3431 4673.6603,-213.3431"/>
</g>
<!-- 58 -->
<g id="node59" class="node">
<title>58</title>
<path fill="#f7d7c1" stroke="#000000" d="M5137.0956,-203.2C5137.0956,-203.2 4903.2248,-203.2 4903.2248,-203.2 4897.2248,-203.2 4891.2248,-197.2 4891.2248,-191.2 4891.2248,-191.2 4891.2248,-123.2 4891.2248,-123.2 4891.2248,-117.2 4897.2248,-111.2 4903.2248,-111.2 4903.2248,-111.2 5137.0956,-111.2 5137.0956,-111.2 5143.0956,-111.2 5149.0956,-117.2 5149.0956,-123.2 5149.0956,-123.2 5149.0956,-191.2 5149.0956,-191.2 5149.0956,-197.2 5143.0956,-203.2 5137.0956,-203.2"/>
<text text-anchor="start" x="4899.1925" y="-186.6" font-family="Helvetica,sans-Serif" font-size="14.00" fill="#000000">Current location (During Study) ? ≤ 0.5</text>
<text text-anchor="start" x="4983.7826" y="-169.8" font-family="Helvetica,sans-Serif" font-size="14.00" fill="#000000">gini = 0.483</text>
<text text-anchor="start" x="4974.4509" y="-153" font-family="Helvetica,sans-Serif" font-size="14.00" fill="#000000">samples = 172</text>
<text text-anchor="start" x="4968.2174" y="-136.2" font-family="Helvetica,sans-Serif" font-size="14.00" fill="#000000">value = [102, 70]</text>
<text text-anchor="start" x="4992.3464" y="-119.4" font-family="Helvetica,sans-Serif" font-size="14.00" fill="#000000">class = 0</text>
</g>
<!-- 54&#45;&gt;58 -->
<g id="edge58" class="edge">
<title>54-&gt;58</title>
<path fill="none" stroke="#000000" d="M4775.1717,-246.7958C4809.5518,-234.2225 4848.2468,-220.0712 4884.5553,-206.7926"/>
<polygon fill="#000000" stroke="#000000" points="4886.0376,-209.9773 4894.2271,-203.2555 4883.6333,-203.4032 4886.0376,-209.9773"/>
</g>
<!-- 56 -->
<g id="node57" class="node">
<title>56</title>
<path fill="#4da7e8" stroke="#000000" d="M4647.4811,-75.3003C4647.4811,-75.3003 4566.8393,-75.3003 4566.8393,-75.3003 4560.8393,-75.3003 4554.8393,-69.3003 4554.8393,-63.3003 4554.8393,-63.3003 4554.8393,-11.8997 4554.8393,-11.8997 4554.8393,-5.8997 4560.8393,.1003 4566.8393,.1003 4566.8393,.1003 4647.4811,.1003 4647.4811,.1003 4653.4811,.1003 4659.4811,-5.8997 4659.4811,-11.8997 4659.4811,-11.8997 4659.4811,-63.3003 4659.4811,-63.3003 4659.4811,-69.3003 4653.4811,-75.3003 4647.4811,-75.3003"/>
<text text-anchor="start" x="4570.7826" y="-58.6" font-family="Helvetica,sans-Serif" font-size="14.00" fill="#000000">gini = 0.165</text>
<text text-anchor="start" x="4565.3422" y="-41.8" font-family="Helvetica,sans-Serif" font-size="14.00" fill="#000000">samples = 11</text>
<text text-anchor="start" x="4563" y="-25" font-family="Helvetica,sans-Serif" font-size="14.00" fill="#000000">value = [1, 10]</text>
<text text-anchor="start" x="4579.3464" y="-8.2" font-family="Helvetica,sans-Serif" font-size="14.00" fill="#000000">class = 1</text>
</g>
<!-- 55&#45;&gt;56 -->
<g id="edge56" class="edge">
<title>55-&gt;56</title>
<path fill="none" stroke="#000000" d="M4645.8028,-110.9595C4641.177,-102.178 4636.3344,-92.9846 4631.7029,-84.1922"/>
<polygon fill="#000000" stroke="#000000" points="4634.7281,-82.4252 4626.9709,-75.2088 4628.5348,-85.6876 4634.7281,-82.4252"/>
</g>
<!-- 57 -->
<g id="node58" class="node">
<title>57</title>
<path fill="#fbeade" stroke="#000000" d="M4777.2632,-75.3003C4777.2632,-75.3003 4689.0572,-75.3003 4689.0572,-75.3003 4683.0572,-75.3003 4677.0572,-69.3003 4677.0572,-63.3003 4677.0572,-63.3003 4677.0572,-11.8997 4677.0572,-11.8997 4677.0572,-5.8997 4683.0572,.1003 4689.0572,.1003 4689.0572,.1003 4777.2632,.1003 4777.2632,.1003 4783.2632,.1003 4789.2632,-5.8997 4789.2632,-11.8997 4789.2632,-11.8997 4789.2632,-63.3003 4789.2632,-63.3003 4789.2632,-69.3003 4783.2632,-75.3003 4777.2632,-75.3003"/>
<text text-anchor="start" x="4696.7826" y="-58.6" font-family="Helvetica,sans-Serif" font-size="14.00" fill="#000000">gini = 0.496</text>
<text text-anchor="start" x="4691.3422" y="-41.8" font-family="Helvetica,sans-Serif" font-size="14.00" fill="#000000">samples = 22</text>
<text text-anchor="start" x="4685.1087" y="-25" font-family="Helvetica,sans-Serif" font-size="14.00" fill="#000000">value = [12, 10]</text>
<text text-anchor="start" x="4705.3464" y="-8.2" font-family="Helvetica,sans-Serif" font-size="14.00" fill="#000000">class = 0</text>
</g>
<!-- 55&#45;&gt;57 -->
<g id="edge57" class="edge">
<title>55-&gt;57</title>
<path fill="none" stroke="#000000" d="M4694.5176,-110.9595C4699.1434,-102.178 4703.986,-92.9846 4708.6175,-84.1922"/>
<polygon fill="#000000" stroke="#000000" points="4711.7856,-85.6876 4713.3495,-75.2088 4705.5923,-82.4252 4711.7856,-85.6876"/>
</g>
<!-- 59 -->
<g id="node60" class="node">
<title>59</title>
<path fill="#fcf2ea" stroke="#000000" d="M4999.2632,-75.3003C4999.2632,-75.3003 4911.0572,-75.3003 4911.0572,-75.3003 4905.0572,-75.3003 4899.0572,-69.3003 4899.0572,-63.3003 4899.0572,-63.3003 4899.0572,-11.8997 4899.0572,-11.8997 4899.0572,-5.8997 4905.0572,.1003 4911.0572,.1003 4911.0572,.1003 4999.2632,.1003 4999.2632,.1003 5005.2632,.1003 5011.2632,-5.8997 5011.2632,-11.8997 5011.2632,-11.8997 5011.2632,-63.3003 5011.2632,-63.3003 5011.2632,-69.3003 5005.2632,-75.3003 4999.2632,-75.3003"/>
<text text-anchor="start" x="4918.7826" y="-58.6" font-family="Helvetica,sans-Serif" font-size="14.00" fill="#000000">gini = 0.498</text>
<text text-anchor="start" x="4913.3422" y="-41.8" font-family="Helvetica,sans-Serif" font-size="14.00" fill="#000000">samples = 89</text>
<text text-anchor="start" x="4907.1087" y="-25" font-family="Helvetica,sans-Serif" font-size="14.00" fill="#000000">value = [47, 42]</text>
<text text-anchor="start" x="4927.3464" y="-8.2" font-family="Helvetica,sans-Serif" font-size="14.00" fill="#000000">class = 0</text>
</g>
<!-- 58&#45;&gt;59 -->
<g id="edge59" class="edge">
<title>58-&gt;59</title>
<path fill="none" stroke="#000000" d="M4995.0295,-110.9595C4990.2569,-102.178 4985.2605,-92.9846 4980.4821,-84.1922"/>
<polygon fill="#000000" stroke="#000000" points="4983.4502,-82.3238 4975.5998,-75.2088 4977.2998,-85.6664 4983.4502,-82.3238"/>
</g>
<!-- 60 -->
<g id="node61" class="node">
<title>60</title>
<path fill="#f2c19e" stroke="#000000" d="M5129.2632,-75.3003C5129.2632,-75.3003 5041.0572,-75.3003 5041.0572,-75.3003 5035.0572,-75.3003 5029.0572,-69.3003 5029.0572,-63.3003 5029.0572,-63.3003 5029.0572,-11.8997 5029.0572,-11.8997 5029.0572,-5.8997 5035.0572,.1003 5041.0572,.1003 5041.0572,.1003 5129.2632,.1003 5129.2632,.1003 5135.2632,.1003 5141.2632,-5.8997 5141.2632,-11.8997 5141.2632,-11.8997 5141.2632,-63.3003 5141.2632,-63.3003 5141.2632,-69.3003 5135.2632,-75.3003 5129.2632,-75.3003"/>
<text text-anchor="start" x="5048.7826" y="-58.6" font-family="Helvetica,sans-Serif" font-size="14.00" fill="#000000">gini = 0.447</text>
<text text-anchor="start" x="5043.3422" y="-41.8" font-family="Helvetica,sans-Serif" font-size="14.00" fill="#000000">samples = 83</text>
<text text-anchor="start" x="5037.1087" y="-25" font-family="Helvetica,sans-Serif" font-size="14.00" fill="#000000">value = [55, 28]</text>
<text text-anchor="start" x="5057.3464" y="-8.2" font-family="Helvetica,sans-Serif" font-size="14.00" fill="#000000">class = 0</text>
</g>
<!-- 58&#45;&gt;60 -->
<g id="edge60" class="edge">
<title>58-&gt;60</title>
<path fill="none" stroke="#000000" d="M5045.2909,-110.9595C5050.0635,-102.178 5055.0599,-92.9846 5059.8383,-84.1922"/>
<polygon fill="#000000" stroke="#000000" points="5063.0206,-85.6664 5064.7206,-75.2088 5056.8702,-82.3238 5063.0206,-85.6664"/>
</g>
</g>
</svg>